<svg width="140" height="137" viewBox="0 0 140 137" fill="none" xmlns="http://www.w3.org/2000/svg">
<path d="M16.8051 0C15.2461 0.00185253 13.7516 0.621946 12.6493 1.72426C11.547 2.82657 10.9269 4.32109 10.925 5.88V130.55C10.9269 132.109 11.547 133.603 12.6493 134.706C13.7516 135.808 15.2461 136.428 16.8051 136.43H71.383C72.9419 136.428 74.4365 135.808 75.5388 134.706C76.6411 133.603 77.2612 132.109 77.263 130.55V5.88C77.2612 4.32109 76.6411 2.82657 75.5388 1.72426C74.4365 0.621946 72.9419 0.00185253 71.383 0H16.8051Z" fill="#E6E6E6"/>
<path d="M73.6259 28.848V18.848C70.5181 18.1342 67.5924 16.7824 65.0345 14.8783C62.4767 12.9743 60.3423 10.5594 58.7669 7.78699V7.78699C58.0112 8.34741 57.0948 8.64902 56.154 8.64699H48.21C50.3302 13.9295 53.7882 18.5696 58.2443 22.1114C62.7004 25.6531 68.0012 27.9747 73.6259 28.848Z" fill="white"/>
<path d="M73.624 18.271V8.66099C73.6242 7.95795 73.486 7.26174 73.217 6.61217C72.9481 5.96259 72.5538 5.37238 72.0567 4.87526C71.5596 4.37814 70.9694 3.98384 70.3198 3.71492C69.6702 3.446 68.974 3.30772 68.271 3.30798H60.558V4.23599C60.5587 4.83114 60.4385 5.42024 60.2047 5.96755C59.9709 6.51487 59.6285 7.009 59.198 7.41998C60.7219 10.1276 62.7907 12.4899 65.2737 14.3575C67.7567 16.2252 70.5999 17.5577 73.624 18.271Z" fill="white"/>
<path d="M36.527 8.64301H31.56C30.3911 8.64274 29.2702 8.17822 28.4437 7.35159C27.6173 6.52495 27.153 5.40391 27.153 4.23501V3.30701H19.916C19.2129 3.30701 18.5168 3.4455 17.8673 3.71458C17.2177 3.98365 16.6276 4.37804 16.1305 4.87522C15.6334 5.3724 15.2391 5.96263 14.9702 6.6122C14.7012 7.26177 14.5629 7.95796 14.563 8.66101V127.779C14.5623 128.482 14.7004 129.178 14.9692 129.828C15.238 130.477 15.6324 131.067 16.1296 131.564C16.6269 132.061 17.2173 132.455 17.867 132.723C18.5167 132.992 19.213 133.129 19.916 133.128H68.273C68.4936 133.129 68.7141 133.115 68.933 133.088C70.2276 132.927 71.4188 132.298 72.2829 131.32C73.147 130.343 73.6246 129.084 73.626 127.779V40.089C65.0367 39.0722 56.9372 35.5474 50.3393 29.9548C43.7413 24.3622 38.9372 16.9497 36.527 8.64301V8.64301Z" fill="white"/>
<path d="M47.6069 8.64301H37.1069C39.5059 16.7987 44.2443 24.0717 50.7354 29.5614C57.2265 35.051 65.1852 38.5163 73.6259 39.528V29.417C67.8504 28.534 62.4077 26.1506 57.8418 22.5052C53.2759 18.8597 49.7467 14.0797 47.6069 8.64301Z" fill="white"/>
<path d="M69.942 97.906H20.326C20.0823 97.9057 19.8487 97.8088 19.6765 97.6365C19.5042 97.4642 19.4072 97.2307 19.407 96.987V84.68C19.4072 84.4363 19.5042 84.2027 19.6765 84.0305C19.8487 83.8582 20.0823 83.7613 20.326 83.761H69.942C70.1856 83.7613 70.4192 83.8582 70.5915 84.0305C70.7638 84.2027 70.8607 84.4363 70.861 84.68V96.988C70.8605 97.2315 70.7634 97.4648 70.5912 97.6369C70.4189 97.809 70.1855 97.9057 69.942 97.906ZM20.326 84.128C20.1799 84.1283 20.04 84.1864 19.9367 84.2897C19.8334 84.3929 19.7753 84.5329 19.775 84.679V96.987C19.7753 97.1331 19.8334 97.273 19.9367 97.3763C20.04 97.4796 20.1799 97.5377 20.326 97.538H69.942C70.088 97.5377 70.228 97.4796 70.3313 97.3763C70.4346 97.273 70.4927 97.1331 70.493 96.987V84.68C70.4927 84.5339 70.4346 84.3939 70.3313 84.2906C70.228 84.1874 70.088 84.1292 69.942 84.129L20.326 84.128Z" fill="#E6E6E6"/>
<path d="M26.758 94.692C28.8893 94.692 30.617 92.9643 30.617 90.833C30.617 88.7017 28.8893 86.974 26.758 86.974C24.6268 86.974 22.899 88.7017 22.899 90.833C22.899 92.9643 24.6268 94.692 26.758 94.692Z" fill="#3F3D56"/>
<path d="M35.67 88.26C35.4994 88.26 35.3359 88.3278 35.2153 88.4484C35.0947 88.569 35.027 88.7325 35.027 88.903C35.027 89.0735 35.0947 89.2371 35.2153 89.3577C35.3359 89.4783 35.4994 89.546 35.67 89.546H65.991C66.1615 89.546 66.3251 89.4783 66.4456 89.3577C66.5662 89.2371 66.634 89.0735 66.634 88.903C66.634 88.7325 66.5662 88.569 66.4456 88.4484C66.3251 88.3278 66.1615 88.26 65.991 88.26H35.67Z" fill="#E6E6E6"/>
<path d="M35.67 92.119C35.4994 92.119 35.3359 92.1868 35.2153 92.3074C35.0947 92.428 35.027 92.5915 35.027 92.762C35.027 92.9326 35.0947 93.0961 35.2153 93.2167C35.3359 93.3373 35.4994 93.405 35.67 93.405H65.991C66.1615 93.405 66.3251 93.3373 66.4456 93.2167C66.5662 93.0961 66.634 92.9326 66.634 92.762C66.634 92.5915 66.5662 92.428 66.4456 92.3074C66.3251 92.1868 66.1615 92.119 65.991 92.119H35.67Z" fill="#E6E6E6"/>
<path d="M69.942 118.487H20.326C20.0823 118.487 19.8487 118.39 19.6765 118.218C19.5042 118.045 19.4072 117.812 19.407 117.568V105.261C19.4072 105.017 19.5042 104.784 19.6765 104.611C19.8487 104.439 20.0823 104.342 20.326 104.342H69.942C70.1856 104.342 70.4192 104.439 70.5915 104.611C70.7638 104.784 70.8607 105.017 70.861 105.261V117.569C70.8605 117.812 70.7634 118.046 70.5912 118.218C70.4189 118.39 70.1855 118.487 69.942 118.487V118.487ZM20.326 104.71C20.1799 104.71 20.04 104.768 19.9367 104.872C19.8334 104.975 19.7753 105.115 19.775 105.261V117.569C19.7753 117.715 19.8334 117.855 19.9367 117.958C20.04 118.062 20.1799 118.12 20.326 118.12H69.942C70.088 118.12 70.228 118.062 70.3313 117.958C70.4346 117.855 70.4927 117.715 70.493 117.569V105.261C70.4927 105.115 70.4346 104.975 70.3313 104.872C70.228 104.768 70.088 104.71 69.942 104.71H20.326Z" fill="#E6E6E6"/>
<path d="M26.758 115.273C28.8893 115.273 30.617 113.545 30.617 111.414C30.617 109.283 28.8893 107.555 26.758 107.555C24.6268 107.555 22.899 109.283 22.899 111.414C22.899 113.545 24.6268 115.273 26.758 115.273Z" fill="#3F3D56"/>
<path d="M35.67 108.842C35.4994 108.842 35.3359 108.91 35.2153 109.03C35.0947 109.151 35.027 109.314 35.027 109.485C35.027 109.656 35.0947 109.819 35.2153 109.94C35.3359 110.06 35.4994 110.128 35.67 110.128H65.991C66.1615 110.128 66.3251 110.06 66.4456 109.94C66.5662 109.819 66.634 109.656 66.634 109.485C66.634 109.314 66.5662 109.151 66.4456 109.03C66.3251 108.91 66.1615 108.842 65.991 108.842H35.67Z" fill="#E6E6E6"/>
<path d="M35.67 112.701C35.4994 112.701 35.3359 112.769 35.2153 112.889C35.0947 113.01 35.027 113.173 35.027 113.344C35.027 113.515 35.0947 113.678 35.2153 113.799C35.3359 113.919 35.4994 113.987 35.67 113.987H65.991C66.1615 113.987 66.3251 113.919 66.4456 113.799C66.5662 113.678 66.634 113.515 66.634 113.344C66.634 113.173 66.5662 113.01 66.4456 112.889C66.3251 112.769 66.1615 112.701 65.991 112.701H35.67Z" fill="#E6E6E6"/>
<path d="M44.086 72.366C41.7933 72.3669 39.5228 71.916 37.4045 71.0391C35.2861 70.1621 33.3612 68.8763 31.74 67.255C30.1188 65.6338 28.833 63.709 27.956 61.5906C27.079 59.4722 26.6281 57.2018 26.629 54.909C26.629 54.872 26.629 54.834 26.629 54.797C26.6496 51.6906 27.4988 48.646 29.0889 45.9773C30.679 43.3086 32.9524 41.1125 35.6745 39.6158C38.3967 38.119 41.4689 37.3757 44.5742 37.4626C47.6794 37.5496 50.7053 38.4636 53.3394 40.1103C55.9735 41.757 58.1205 44.0768 59.5588 46.8302C60.9971 49.5837 61.6746 52.6711 61.5214 55.7738C61.3682 58.8765 60.3898 61.8821 58.6873 64.4805C56.9847 67.0789 54.6196 69.1758 51.836 70.555C49.4286 71.753 46.775 72.3731 44.086 72.366V72.366ZM44.086 37.818C39.574 37.8279 35.2481 39.618 32.0485 42.7993C28.8488 45.9806 27.0339 50.2961 26.998 54.808C26.998 54.847 26.998 54.878 26.998 54.908C26.9973 58.2888 27.9991 61.594 29.8769 64.4053C31.7547 67.2167 34.424 69.4081 37.5474 70.7022C40.6707 71.9964 44.1076 72.3352 47.4235 71.6758C50.7394 71.0164 53.7853 69.3885 56.1759 66.9979C58.5665 64.6073 60.1944 61.5614 60.8538 58.2455C61.5132 54.9296 61.1744 51.4927 59.8802 48.3694C58.5861 45.246 56.3947 42.5767 53.5833 40.6989C50.772 38.8211 47.4668 37.8192 44.086 37.82V37.818Z" fill="#E6E6E6"/>
<path d="M51.9969 55.753L40.0479 48.853C39.9921 48.8207 39.9288 48.8036 39.8643 48.8036C39.7997 48.8035 39.7364 48.8204 39.6805 48.8527C39.6246 48.8849 39.5782 48.9314 39.546 48.9872C39.5138 49.0431 39.4969 49.1065 39.4969 49.171V62.971C39.4969 63.0355 39.5138 63.0989 39.546 63.1548C39.5782 63.2107 39.6246 63.2571 39.6805 63.2893C39.7364 63.3216 39.7997 63.3385 39.8643 63.3385C39.9288 63.3384 39.9921 63.3214 40.0479 63.289L51.9969 56.389C52.0528 56.3567 52.0992 56.3103 52.1314 56.2544C52.1636 56.1985 52.1806 56.1351 52.1806 56.0705C52.1806 56.006 52.1636 55.9426 52.1314 55.8867C52.0992 55.8308 52.0528 55.7843 51.9969 55.752L40.0479 48.852C39.9921 48.8197 39.9288 48.8026 39.8643 48.8026C39.7997 48.8025 39.7364 48.8195 39.6805 48.8517C39.6246 48.884 39.5782 48.9304 39.546 48.9862C39.5138 49.0421 39.4969 49.1055 39.4969 49.17V62.97C39.4969 63.0345 39.5138 63.0979 39.546 63.1538C39.5782 63.2097 39.6246 63.2561 39.6805 63.2883C39.7364 63.3206 39.7997 63.3375 39.8643 63.3375C39.9288 63.3374 39.9921 63.3204 40.0479 63.288L51.9969 56.388C52.0528 56.3557 52.0992 56.3093 52.1314 56.2534C52.1636 56.1975 52.1806 56.134 52.1806 56.0695C52.1806 56.005 52.1636 55.9416 52.1314 55.8857C52.0992 55.8298 52.0528 55.7833 51.9969 55.751V55.753Z" fill="#2CDD82"/>
<path d="M116.953 53.346L108.867 54.265C109.054 51.9586 108.74 49.6391 107.948 47.465L114.564 45.076C113.971 47.546 115.084 50.37 116.953 53.346Z" fill="#FFB8B8"/>
<path d="M117.927 80.926L120.546 85.602C120.703 85.883 120.803 86.1925 120.84 86.5124C120.877 86.8324 120.849 87.1565 120.76 87.4658C120.67 87.7751 120.52 88.0635 120.318 88.3142C120.115 88.5649 119.865 88.7728 119.582 88.926V88.926C119.229 89.1169 118.835 89.2175 118.433 89.2187C118.032 89.2199 117.637 89.1217 117.283 88.933C116.929 88.7442 116.627 88.4707 116.405 88.1369C116.182 87.8031 116.046 87.4194 116.008 87.02L115.582 82.552L114.131 65.497L111.656 54.279L116.795 52.82L119.187 65.435L117.927 80.926Z" fill="#FFB8B8"/>
<path d="M122.281 130.711L118.973 130.527L111.622 97.817L96.002 130.711L92.694 130.527L102.248 79.808L102.432 70.62L114.377 69.885C118.841 74.795 121.369 79.872 121.727 85.138L122.281 130.711Z" fill="#2F2E41"/>
<path d="M95.735 136.454C95.109 136.74 94.507 134.354 94.056 134.944C92.543 136.917 89.019 136.298 89.035 136.07C88.9165 136.032 88.8069 135.97 88.7129 135.888C88.619 135.806 88.5425 135.706 88.4881 135.594C88.4338 135.482 88.4026 135.36 88.3966 135.236C88.3906 135.111 88.4097 134.987 88.453 134.87C88.5055 134.73 88.5913 134.605 88.7029 134.505C88.8146 134.405 88.9488 134.334 89.094 134.298L90.665 133.905L93.132 129.567L95.65 129.397C96.2116 130.113 96.6035 130.947 96.7963 131.836C96.989 132.725 96.9777 133.646 96.763 134.53C96.534 135.459 96.181 136.25 95.735 136.454Z" fill="#2F2E41"/>
<path d="M121.844 136.453C121.218 136.739 120.616 134.353 120.165 134.942C118.421 137.214 115.027 136.43 115.144 136.069C115.025 136.031 114.916 135.969 114.822 135.887C114.728 135.805 114.651 135.705 114.597 135.593C114.543 135.481 114.512 135.359 114.506 135.235C114.5 135.11 114.519 134.986 114.562 134.869V134.869C114.615 134.729 114.7 134.604 114.812 134.504C114.924 134.405 115.058 134.334 115.203 134.298L116.774 133.905L119.241 129.567L121.929 129.227L121.997 129.338C122.517 130.176 122.852 131.114 122.98 132.092C123.108 133.069 123.026 134.063 122.74 135.006C122.631 135.583 122.311 136.098 121.844 136.453V136.453Z" fill="#2F2E41"/>
<path d="M109.602 49.12C112.748 49.12 115.299 46.5694 115.299 43.423C115.299 40.2766 112.748 37.726 109.602 37.726C106.456 37.726 103.905 40.2766 103.905 43.423C103.905 46.5694 106.456 49.12 109.602 49.12Z" fill="#FFB8B8"/>
<path d="M114.748 70.803L102.436 71.538L101.336 64.555C100.195 61.416 101.621 58.532 103.909 55.734L108.687 50.405L115.303 50.221C116.193 50.5134 116.982 51.053 117.577 51.7769C118.173 52.5007 118.55 53.3789 118.665 54.309C119.141 58.2156 118.428 62.1751 116.619 65.67L114.748 70.803Z" fill="#2CDD82"/>
<path d="M101.332 86.423L102.213 91.709C102.266 92.0265 102.255 92.3514 102.181 92.6647C102.107 92.9781 101.972 93.2736 101.783 93.5341C101.594 93.7946 101.355 94.015 101.08 94.1823C100.805 94.3497 100.499 94.4608 100.181 94.509V94.509C99.7848 94.5689 99.3799 94.5298 99.0025 94.3952C98.625 94.2606 98.2868 94.0348 98.0178 93.7378C97.7488 93.4408 97.5575 93.0818 97.4609 92.693C97.3642 92.3041 97.3653 91.8974 97.464 91.509L98.576 87.161L102.986 70.622L104.456 59.229L109.785 59.597L107.764 72.277L101.332 86.423Z" fill="#FFB8B8"/>
<path d="M116.433 65.383H116.301C113.816 63.23 111.657 60.816 113.401 57.794C111.922 54.04 110.274 50.142 110.373 47.73C110.477 45.9469 109.903 44.1903 108.766 42.813C107.194 40.977 106.845 40.157 103.974 40.852C103.964 40.1148 104.103 39.3832 104.385 38.7017C104.666 38.0202 105.083 37.403 105.61 36.8876C106.137 36.3721 106.763 35.9693 107.451 35.7034C108.139 35.4375 108.873 35.3142 109.61 35.341L111.403 35.406C112.775 35.456 117.159 36.017 118.103 36.922C118.58 37.3964 118.941 37.9746 119.158 38.6116C119.375 39.2485 119.442 39.927 119.353 40.594C119.253 41.3273 119.343 42.0741 119.616 42.762C119.889 43.45 120.335 44.0559 120.911 44.521C123.326 47.021 124.323 49.61 122.953 52.359C121.919 55.268 121.969 57.659 124.635 58.814C125.499 62.138 119.868 65.383 116.433 65.383Z" fill="#2F2E41"/>
<path d="M110.337 61.431C108.056 59.686 105.789 59.548 103.537 61.247L104.152 54.269C104.135 53.2829 104.503 52.3289 105.177 51.6092C105.852 50.8896 106.78 50.4609 107.765 50.414V50.414C108.283 50.3893 108.801 50.4712 109.286 50.6545C109.771 50.8378 110.214 51.1187 110.586 51.4798C110.959 51.8409 111.253 52.2746 111.452 52.754C111.65 53.2334 111.748 53.7483 111.739 54.267L110.337 61.431Z" fill="#2CDD82"/>
<path d="M109.694 45.903C110.1 45.903 110.429 45.286 110.429 44.525C110.429 43.7639 110.1 43.147 109.694 43.147C109.288 43.147 108.959 43.7639 108.959 44.525C108.959 45.286 109.288 45.903 109.694 45.903Z" fill="#FFB8B8"/>
<path d="M111.348 41.358V35.245C111.348 35.0988 111.29 34.9587 111.187 34.8553C111.083 34.752 110.943 34.694 110.797 34.694H109.697C109.551 34.694 109.411 34.752 109.307 34.8553C109.204 34.9587 109.146 35.0988 109.146 35.245V40.989C108.331 41.1212 107.589 41.5387 107.053 42.1672C106.516 42.7956 106.221 43.5941 106.219 44.4202C106.217 45.2463 106.508 46.0462 107.041 46.6774C107.574 47.3086 108.314 47.7299 109.129 47.8663C109.943 48.0026 110.78 47.8451 111.489 47.4218C112.199 46.9986 112.735 46.3371 113.002 45.5553C113.269 44.7735 113.249 43.9224 112.947 43.1536C112.645 42.3848 112.079 41.7484 111.351 41.358H111.348Z" fill="#2CDD82"/>
<path d="M109.878 46.087C110.791 46.087 111.532 45.3465 111.532 44.433C111.532 43.5195 110.791 42.779 109.878 42.779C108.965 42.779 108.224 43.5195 108.224 44.433C108.224 45.3465 108.965 46.087 109.878 46.087Z" fill="white"/>
<path d="M139.213 136.671H0V136.271H139.286L139.213 136.671Z" fill="#3F3D56"/>
</svg>
