<svg width="50" height="50" viewBox="0 0 50 50" fill="none" xmlns="http://www.w3.org/2000/svg">
<circle cx="25" cy="25" r="24" fill="white" stroke="#2CDD82" stroke-width="2"/>
<path d="M25 15C23.6868 15 22.3864 15.2587 21.1732 15.7612C19.9599 16.2638 18.8575 17.0003 17.9289 17.9289C16.0536 19.8043 15 22.3478 15 25C15 27.6522 16.0536 30.1957 17.9289 32.0711C18.8575 32.9997 19.9599 33.7362 21.1732 34.2388C22.3864 34.7413 23.6868 35 25 35C27.6522 35 30.1957 33.9464 32.0711 32.0711C33.9464 30.1957 35 27.6522 35 25C35 23.6868 34.7413 22.3864 34.2388 21.1732C33.7362 19.9599 32.9997 18.8575 32.0711 17.9289C31.1425 17.0003 30.0401 16.2638 28.8268 15.7612C27.6136 15.2587 26.3132 15 25 15V15ZM25 21.39C26.57 22.4 28.42 23 30.42 23C31.2 23 31.95 22.91 32.67 22.74C32.88 23.45 33 24.21 33 25C33 29.41 29.41 33 25 33C22 33 19.39 31.34 18 28.89L19.75 27V26C19.75 25.6685 19.8817 25.3505 20.1161 25.1161C20.3505 24.8817 20.6685 24.75 21 24.75C21.3315 24.75 21.6495 24.8817 21.8839 25.1161C22.1183 25.3505 22.25 25.6685 22.25 26V27H25V21.39ZM29 24.75C28.6685 24.75 28.3505 24.8817 28.1161 25.1161C27.8817 25.3505 27.75 25.6685 27.75 26C27.75 26.3315 27.8817 26.6495 28.1161 26.8839C28.3505 27.1183 28.6685 27.25 29 27.25C29.3315 27.25 29.6495 27.1183 29.8839 26.8839C30.1183 26.6495 30.25 26.3315 30.25 26C30.25 25.6685 30.1183 25.3505 29.8839 25.1161C29.6495 24.8817 29.3315 24.75 29 24.75Z" fill="#2CDD82"/>
</svg>
