<svg width="600" height="611" viewBox="0 0 600 611" fill="none" xmlns="http://www.w3.org/2000/svg">
<g filter="url(#filter0_d)">
<circle cx="320" cy="291" r="220" fill="url(#paint0_radial)"/>
</g>
<g filter="url(#filter1_d)">
<circle cx="330" cy="281" r="220" fill="white"/>
</g>
<path fill-rule="evenodd" clip-rule="evenodd" d="M188.781 326.415C189.387 329.347 191.409 329.751 194.138 329.65C197.777 329.549 197.272 328.235 200.001 326.517C202.731 324.899 209.605 321.563 212.435 321.361C214.154 321.462 214.861 321.765 216.782 321.664C218.197 321.664 219.613 321.967 220.927 322.17C223.757 322.675 226.082 323.585 228.609 324.191C228.508 325.708 228.205 326.112 228.205 327.831C228.407 346.633 245.997 346.128 245.896 328.538C245.896 325.809 245.896 323.282 246.3 320.653C246.603 318.834 247.21 314.992 247.21 313.375L248.928 310.848L249.13 321.967C251.051 318.632 252.77 308.725 254.69 306.198L256.813 309.837C257.319 306.804 257.218 305.389 258.026 302.457C258.532 300.335 259.138 298.111 260.25 295.988C263.788 288.81 287.241 267.784 294.823 262.123C300.079 258.181 321.308 241.602 324.846 240.692C323.936 251.509 316.456 269.098 311.502 278.904C304.224 293.359 300.382 303.266 300.382 319.44C287.746 317.115 271.673 322.675 261.362 330.257C246.603 341.275 246.199 347.745 236.798 357.146C223.656 370.288 207.987 379.79 189.084 370.894C179.48 366.345 168.462 354.114 164.924 343.904C161.082 332.683 170.18 331.167 170.18 325.405C170.18 323.282 168.866 320.957 167.148 319.744C158.959 314.083 144.908 330.964 151.883 349.464C155.522 359.37 166.036 372.714 174.325 378.173C186.658 386.361 199.294 390.708 214.76 386.765C230.935 382.722 244.885 370.793 254.488 358.056C264.395 344.814 272.179 336.221 289.364 333.188C292.093 332.683 294.924 332.986 297.754 332.885C292.599 341.174 285.118 346.229 277.941 360.684C273.897 368.772 273.493 370.49 276.829 379.083C279.356 385.552 285.725 391.921 286.23 393.842C284.107 396.672 275.818 403.748 272.482 405.366C271.37 405.871 269.146 405.77 267.731 405.972C260.857 407.084 252.77 408.702 248.625 414.969C245.997 419.013 246.502 419.417 246.502 424.37L247.21 425.988C248.827 427.1 248.018 427.201 250.344 428.01L251.557 428.111L253.275 428.01C256.611 430.335 257.824 430.234 261.969 429.728L264.395 429.425C266.214 432.255 270.966 431.952 273.998 431.952C279.053 431.75 284.41 430.739 289.263 429.728C291.487 429.223 294.115 428.414 296.238 428.111C297.35 427.908 301.798 429.122 303.112 429.627C308.47 430.233 315.546 431.345 320.701 429.425C334.854 426.594 328.991 414.565 323.835 406.882L324.138 405.669L332.428 407.387L325.857 400.716C322.521 397.076 317.77 388.989 315.546 384.44C314.535 382.419 312.109 377.061 311.603 375.039C313.928 365.638 325.857 353.305 333.236 347.644C337.28 349.868 345.367 350.171 348.602 350.778C354.061 351.789 363.361 347.846 364.27 348.048L377.513 357.045C381.759 360.179 385.903 363.919 389.037 368.165C388.734 373.422 385.095 384.642 382.062 389.394C380.141 392.527 378.827 394.954 376.603 397.986C373.368 402.333 371.246 403.849 369.83 405.669C373.267 407.792 376.502 405.366 379.636 404.557L376.401 410.926L378.221 410.319C373.571 420.529 382.972 424.977 391.767 425.482C396.821 425.786 402.886 425.179 407.84 423.865C410.67 422.45 416.23 424.674 419.465 425.28C423.711 426.089 427.552 426.695 431.899 427.1L437.964 426.898C439.683 426.695 441.401 426.089 442.412 424.674L445.546 424.977C448.477 425.179 451.308 425.482 453.228 423.157L455.351 423.258C457.575 423.157 458.889 422.45 460.001 420.529C462.023 410.723 455.25 405.164 446.86 402.636C435.134 399.098 423.508 402.131 418.959 398.087C421.79 398.087 426.238 396.874 428.967 395.863C431.899 394.751 431.292 394.751 431.494 394.145C425.631 393.639 421.284 394.852 416.533 391.314C418.858 387.473 425.126 382.52 427.754 377.263C434.426 363.919 426.844 359.269 420.476 351.182C417.746 347.644 411.984 341.882 408.648 337.838L396.72 324.191C396.012 323.383 394.597 321.765 393.889 320.957C392.272 319.036 385.398 311.454 385.196 310.544L383.983 298.818C382.264 287.092 380.95 277.792 378.625 266.065C378.019 263.134 376.401 258.282 376.199 255.552C378.322 257.978 381.658 263.538 383.578 266.47C390.655 277.185 403.493 293.157 412.389 302.053C415.927 305.591 423.407 312.263 427.249 314.891C430.989 317.52 434.527 319.845 438.773 321.765C442.513 323.484 441.502 322.877 443.625 326.314C445.141 328.74 445.242 331.167 446.253 332.885L447.163 328.943C447.972 329.954 448.376 330.762 448.983 332.076C449.69 333.492 449.893 335.311 450.398 336.12L453.936 329.751L455.554 332.582L456.059 330.762C458.687 334.503 459.092 345.42 460.81 346.936C462.326 348.251 472.031 351.688 469.504 337.232C468.897 333.997 466.977 328.134 466.875 325.405L469.706 324.596C471.222 328.336 472.435 331.571 473.345 335.412C474.861 341.579 473.547 344.409 477.085 346.431C482.14 349.261 486.487 341.579 484.061 334.098C483.555 332.481 482.241 330.055 481.938 328.639C483.252 329.549 485.88 334.503 486.588 336.221C487.801 339.254 489.317 341.781 493.866 341.174C502.459 340.163 498.314 329.852 494.372 326.112C496.798 325.91 498.213 325.202 499.931 323.484C500.538 318.632 497 316.408 493.967 313.375C491.137 310.544 487.295 309.23 483.757 307.512C485.577 306.905 485.476 307.107 487.295 306.905C486.183 305.49 482.14 304.681 481.634 303.064C483.454 302.963 485.172 302.761 486.992 302.558C486.082 301.345 484.061 301.244 482.746 300.233C485.375 299.93 488.306 299.93 490.935 299.728C490.935 299.728 476.378 297.403 470.211 293.562C429.978 268.694 413.096 252.317 379.029 221.586C372.863 215.42 368.516 213.196 361.44 217.745C361.137 215.824 361.44 215.016 360.935 213.095C372.155 212.792 386.106 206.423 394.294 198.943C398.742 194.899 400.561 195.101 407.233 188.126C410.67 184.588 415.017 178.32 416.533 173.468C417.342 172.963 419.061 170.739 420.476 169.728C421.992 168.616 423.104 167.302 424.823 166.19C431.292 162.045 432.809 163.562 436.751 163.966C434.83 161.439 428.361 159.619 425.328 159.316C426.844 158.204 434.224 156.384 441.098 149.611C445.445 145.264 449.69 138.896 449.791 132.527C449.084 132.628 443.827 136.975 442.412 137.986C439.48 139.907 436.246 141.423 432.606 141.019C441.805 134.145 448.983 125.754 451.914 114.331C452.622 111.602 453.835 103.11 452.521 100.785C451.914 102.302 450.095 106.952 448.882 107.963C448.68 105.84 449.084 105.031 449.084 103.414C447.669 103.717 445.344 108.569 436.953 110.692C441.098 100.785 449.994 90.2722 441.704 77.7372C438.672 73.0871 432.708 69.2458 427.249 72.7839C425.227 74.098 423.205 76.5241 421.79 78.4448C420.274 80.5677 419.465 83.8025 417.847 85.6221C418.151 81.7807 420.274 74.1991 420.274 73.0871L416.23 78.1416C415.017 75.3111 415.725 68.1338 415.624 64.7979C415.624 62.9783 415.927 60.2489 416.23 58.5304C416.533 56.9129 417.342 54.2846 417.443 52.9705L417.746 52.8694L417.544 52.5661L417.443 52.9705C415.522 54.2846 412.591 58.9347 411.277 61.1587C409.053 64.5957 408.042 68.0327 407.638 71.9752C405.515 69.0436 402.987 60.9565 402.078 57.4184C398.236 42.154 401.067 21.8352 410.569 8.69363C408.042 8.59254 404.099 13.3437 401.977 14.7589C402.078 13.4448 407.435 1.92069 408.446 0C402.785 0.505443 366.596 14.5568 359.721 17.8927C349.916 22.5428 347.692 23.3515 337.785 29.0125C324.543 36.5941 321.106 43.1649 319.589 44.2768C319.69 40.2333 322.723 35.0778 325.554 31.944C326.463 30.9331 328.081 30.0233 328.889 28.8103C320.398 30.8321 305.437 41.2442 298.866 47.8149C295.227 51.4541 291.082 57.3173 288.858 62.2706C287.544 65.2022 286.432 68.336 285.826 71.4697C284.107 79.9612 285.32 77.9394 284.815 83.0949L270.662 68.336C270.763 69.9534 279.457 84.5101 280.973 87.3406L276.02 86.1276C276.121 86.5319 281.176 95.1245 281.479 95.3266C280.872 95.3266 280.973 95.5288 280.973 94.9223C278.143 94.1136 272.179 89.1602 265.102 89.1602C256.712 89.1602 255.6 93.3049 254.589 100.28C253.781 105.739 255.398 113.826 257.116 118.779C259.239 124.845 261.362 127.574 264.698 132.729C259.34 132.224 256.106 130.607 253.983 128.079C253.578 134.549 263.283 141.12 263.687 141.726C253.983 139.401 246.3 129.495 245.188 119.79C238.718 131.516 248.524 155.474 254.994 164.269L247.917 162.854C257.723 170.638 265.507 178.927 276.02 184.386C280.266 186.61 296.137 192.372 302.809 195.101C304.931 196.011 309.784 198.538 311.603 198.943C314.434 202.076 321.51 205.109 325.756 205.918C328.889 206.524 340.312 209.051 342.435 210.264L340.414 215.824C334.651 213.702 334.753 213.297 328.991 214.308C316.759 216.33 308.368 220.171 297.047 224.518C270.966 234.627 232.754 262.73 213.749 281.936C209.504 286.182 197.474 290.428 195.857 292.349C197.879 292.551 200.001 291.843 202.63 292.146C201.72 293.258 199.092 293.764 197.676 294.876C198.687 294.977 199.597 294.775 200.507 294.674C198.586 297.302 193.228 301.851 190.499 306.501C184.535 307.512 173.617 313.88 175.336 322.675C176.347 327.932 178.672 326.921 181.3 326.618C183.524 328.74 186.354 327.426 188.679 326.213L188.781 326.415ZM281.378 95.2256C281.479 95.4277 281.58 95.731 281.782 96.0343C281.681 95.8321 281.58 95.5288 281.378 95.2256ZM275.515 405.164C276.323 404.658 283.298 403.344 284.512 403.445L283.602 404.456C281.074 405.366 278.345 405.164 275.515 405.164Z" fill="#754C29"/>
<path fill-rule="evenodd" clip-rule="evenodd" d="M190.6 306.703C192.521 306.905 194.037 307.107 195.755 307.916C198.182 309.028 199.496 308.017 200.911 308.927C206.067 307.107 213.042 304.883 217.793 309.331C220.32 311.656 220.118 314.284 218.602 317.317C216.074 322.068 215.771 319.339 212.536 321.462C214.255 321.563 214.962 321.866 216.883 321.765C218.298 321.765 219.714 322.068 221.028 322.27C223.858 322.776 226.183 323.686 228.71 324.292C229.014 319.642 232.552 309.432 235.888 306.298C238.617 303.771 240.942 302.053 244.682 304.277C248.322 306.5 247.715 309.836 247.311 313.476L249.029 310.948L249.231 322.068C251.152 318.732 252.871 308.825 254.791 306.298L256.914 309.937C257.42 306.905 257.319 305.49 258.127 302.558C258.633 300.435 259.239 298.211 260.351 296.088C263.889 288.911 287.342 267.885 294.923 262.224C300.18 258.281 321.409 241.703 324.947 240.793C324.037 251.609 316.556 269.199 311.603 279.004C304.325 293.46 300.483 303.367 300.483 319.541L302.202 327.527L297.552 332.986C292.396 341.275 284.916 346.329 277.738 360.785C273.695 368.872 273.291 370.591 276.626 379.183C279.154 385.653 285.522 392.021 286.028 393.942C283.905 396.773 275.616 403.849 272.28 405.466C273.088 405.871 274.2 405.466 275.514 405.466C276.323 404.961 283.298 403.647 284.511 403.748L283.602 404.759L281.074 407.892C284.815 408.196 288.858 405.567 292.093 405.163L291.588 406.78L302.101 401.928C306.347 405.668 305.336 405.567 311.502 408.802C313.928 410.116 320.196 412.947 322.824 413.25L317.972 403.242L323.228 407.69L323.936 407.084L324.239 405.871L332.528 407.589L325.958 400.917C322.622 397.278 317.871 389.191 315.647 384.642C314.636 382.62 312.21 377.263 311.704 375.241C314.029 365.84 325.958 353.507 333.337 347.846C337.381 350.07 345.468 350.373 348.703 350.979C354.161 351.99 363.462 348.048 364.371 348.25L377.614 357.247C381.86 360.381 386.004 364.121 389.138 368.367C388.835 373.623 385.196 384.844 382.163 389.595C380.242 392.729 378.928 395.155 376.704 398.188C373.469 402.535 371.347 404.051 369.931 405.871C373.368 407.993 376.603 405.567 379.737 404.759L376.502 411.127L378.322 410.521C379.434 408.903 384.185 406.174 386.105 404.961L383.679 411.431L394.091 406.174L393.485 410.217L401.875 400.311L414.815 408.398L412.49 399.805C415.32 400.311 417.948 403.141 420.678 403.647L416.735 398.491L418.858 398.289C421.689 398.289 426.137 397.076 428.866 396.065C431.798 394.953 431.191 394.953 431.393 394.347C425.53 393.841 421.183 395.054 416.432 391.516C418.757 387.675 425.025 382.721 427.653 377.465C434.325 364.121 426.743 359.471 420.375 351.384C417.645 347.846 411.883 342.084 408.547 338.04L396.619 324.393C395.911 323.584 394.496 321.967 393.788 321.158C392.171 319.238 385.297 311.656 385.095 310.746L383.882 299.02C382.163 287.294 380.849 277.993 378.524 266.267C377.917 263.336 376.3 258.483 376.098 255.754C378.221 258.18 381.557 263.74 383.477 266.672C390.553 277.387 403.392 293.359 412.287 302.255C415.826 305.793 423.306 312.465 427.147 315.093C430.888 317.721 434.426 320.046 438.672 321.967C442.412 323.686 441.401 323.079 443.524 326.516C445.04 328.942 445.141 331.368 446.152 333.087L447.062 329.144C447.871 330.155 448.275 330.964 448.882 332.278C449.589 333.693 449.791 335.513 450.297 336.322L453.835 329.953L455.452 332.784L455.958 330.964L456.059 325.808L466.774 325.606L469.605 324.798C472.637 324.191 480.725 321.158 481.129 318.025C479.815 317.923 475.569 315.497 473.952 314.891C471.323 313.779 468.998 312.869 468.493 309.735C472.435 304.277 478.501 306.703 483.757 307.815C485.577 307.208 485.476 307.41 487.295 307.208C486.183 305.793 482.14 304.984 481.634 303.367C483.454 303.266 485.172 303.063 486.992 302.861C486.082 301.648 484.06 301.547 482.746 300.536C485.375 300.233 488.306 300.233 490.934 300.031C490.934 300.031 476.378 297.706 470.211 293.864C429.978 268.997 413.096 252.62 379.029 221.889C372.863 215.723 368.516 213.499 361.44 218.048C361.541 219.867 363.765 223.81 364.371 226.539C365.18 229.875 365.382 233.11 366.09 236.345C367.404 242.612 368.617 248.981 369.83 255.35C372.155 267.986 374.682 280.622 377.21 293.258C379.737 306.096 381.86 320.451 374.682 332.177C368.415 342.488 355.981 347.34 343.648 345.318C313.018 340.264 313.018 309.432 318.073 284.463C320.398 272.838 324.34 260.606 328.687 249.689C330.911 244.23 333.034 239.175 335.46 233.818L340.717 216.228C334.955 214.105 335.056 213.701 329.294 214.712C317.062 216.734 308.672 220.575 297.35 224.922C271.269 235.031 233.057 263.133 214.053 282.34C209.807 286.586 197.777 290.832 196.16 292.752C198.182 292.955 200.304 292.247 202.933 292.55C202.023 293.662 199.395 294.168 197.979 295.28C198.99 295.381 199.9 295.179 200.81 295.077C198.889 297.706 193.532 302.255 190.802 306.905L190.6 306.703Z" fill="#754C29"/>
<path fill-rule="evenodd" clip-rule="evenodd" d="M319.488 44.1758C319.589 40.1322 322.622 34.9767 325.452 31.8429C326.362 30.8321 327.98 29.9223 328.788 28.7092C320.297 30.731 305.336 41.1431 298.765 47.7139C295.126 51.3531 290.981 57.2162 288.757 62.1695C287.443 65.1011 286.331 68.2349 285.725 71.3686C284.006 79.8601 285.219 77.8383 284.714 82.9938L270.561 68.2349C270.662 69.8523 279.356 84.4091 280.872 87.2395L275.919 86.0265C276.02 86.4308 281.074 95.0234 281.378 95.2255C287.949 108.771 285.623 134.65 264.698 132.628C259.34 132.123 256.106 130.505 253.983 127.978C253.578 134.448 263.283 141.019 263.687 141.625C253.983 139.3 246.3 129.394 245.188 119.689C238.718 131.415 248.524 155.373 254.994 164.168L247.917 162.753C257.723 170.537 265.507 178.826 276.02 184.285C280.266 186.509 296.137 192.271 302.809 195C304.931 195.91 309.784 198.437 311.603 198.841C309.986 196.516 306.852 194.798 303.819 189.238C299.776 181.96 293.812 171.244 296.743 162.753C298.361 158.002 302.101 156.485 306.448 154.868C305.235 151.835 298.866 143.445 294.823 131.719C291.79 122.722 289.162 111.905 296.339 104.324C302.809 97.5506 315.647 98.056 324.037 100.381C333.337 102.807 341.121 108.064 350.522 109.277C365.888 111.299 368.516 99.7745 384.69 91.5863C390.25 88.7559 392.575 88.3515 397.124 92.4961C409.154 103.515 411.378 115.848 406.424 130.91C405.11 134.852 402.785 140.412 401.977 144.254C408.851 143.243 414.714 146.68 417.039 152.947C419.465 159.72 418.454 166.695 416.735 173.367C417.544 172.862 419.263 170.638 420.678 169.627C422.194 168.515 423.306 167.201 425.025 166.089C431.494 161.944 433.011 163.46 436.953 163.865C435.033 161.338 428.563 159.518 425.53 159.215C427.047 158.103 434.426 156.283 441.3 149.51C445.647 145.163 449.893 138.795 449.994 132.426C449.286 132.527 444.029 136.874 442.614 137.885C439.683 139.806 436.448 141.322 432.809 140.918C442.008 134.044 449.185 125.653 452.117 114.23C452.824 111.501 454.037 103.009 452.723 100.684C452.117 102.201 450.297 106.851 449.084 107.862C448.882 105.739 449.286 104.93 449.286 103.313C447.871 103.616 445.546 108.468 437.155 110.591C418.353 112.208 418.252 98.1571 418.05 85.6221C418.353 81.7807 420.476 74.1991 420.476 73.0871L416.432 78.1415C415.219 75.3111 415.927 68.1338 415.826 64.7978C415.826 62.9782 416.129 60.2489 416.432 58.5303C416.736 56.9129 417.544 54.2846 417.645 52.9705C415.725 54.2846 412.793 58.9347 411.479 61.1587C409.255 64.5957 408.244 68.0327 407.84 71.9751C405.717 69.0436 403.19 60.9565 402.28 57.4184C398.438 42.154 401.269 21.8352 410.771 8.69363C408.244 8.59254 404.302 13.3437 402.179 14.7589C402.28 13.4448 407.638 1.92069 408.648 0C402.987 0.505443 366.798 14.5568 359.924 17.8927C350.118 22.5428 347.894 23.3515 337.987 29.0125C324.745 36.5941 321.308 43.1649 319.791 44.2768L319.488 44.1758Z" fill="#754C29"/>
<path fill-rule="evenodd" clip-rule="evenodd" d="M342.536 147.691L341.93 147.287L326.059 151.128L324.34 151.229C322.521 152.846 309.582 154.464 306.347 154.969C302 156.587 298.361 158.103 296.642 162.854C293.711 171.346 299.675 182.061 303.718 189.339C306.751 194.899 309.885 196.517 311.502 198.943C314.333 202.077 321.409 205.109 325.655 205.918C328.788 206.525 340.211 209.052 342.334 210.265C350.017 212.185 352.14 213.297 360.732 212.994C371.953 212.691 385.903 206.322 394.092 198.842C398.54 194.798 400.359 195 407.031 188.025C410.468 184.487 414.815 178.22 416.331 173.367C418.05 166.696 419.061 159.72 416.634 152.948C414.411 146.68 408.547 143.243 401.572 144.254L389.239 145.063C388.33 144.962 386.712 145.164 386.308 144.557C382.871 144.759 378.726 143.647 375.896 141.727C376.401 144.658 375.896 148.196 374.48 150.724C374.48 145.871 375.592 141.626 370.134 139.098C363.361 135.965 348.299 140.514 345.367 145.366C342.435 150.218 347.49 152.846 350.017 155.273C347.085 154.666 343.042 150.825 342.435 147.59L342.536 147.691Z" fill="#DDB18A"/>
<path fill-rule="evenodd" clip-rule="evenodd" d="M340.515 215.925L335.258 233.515C332.832 238.872 330.709 243.927 328.485 249.386C324.138 260.303 320.297 272.535 317.871 284.16C312.816 309.028 312.816 339.961 343.446 345.016C355.779 347.037 368.213 342.185 374.48 331.874C381.658 320.148 379.535 305.793 377.008 292.955C374.581 280.319 371.953 267.683 369.628 255.047C368.415 248.779 367.202 242.411 365.888 236.042C365.18 232.706 364.978 229.471 364.169 226.236C363.563 223.608 361.339 219.666 361.238 217.745C360.934 215.824 361.238 215.016 360.732 213.095C352.241 213.398 350.118 212.286 342.334 210.365L340.312 215.925H340.515Z" fill="#BA9178"/>
<path fill-rule="evenodd" clip-rule="evenodd" d="M306.448 155.07C309.683 154.463 322.723 152.846 324.442 151.33C310.491 152.947 304.932 132.932 309.885 122.519C312.311 117.364 318.174 113.017 324.138 113.219C330.608 113.421 336.572 120.7 336.876 123.834C337.583 125.451 338.392 125.653 338.998 127.776C340.313 132.325 340.414 137.177 338.594 141.524C336.168 147.387 331.821 148.904 326.16 150.824V151.33L342.031 147.488L342.638 147.893C342.537 142.737 349.815 140.21 353.96 138.795C359.823 136.874 366.596 135.964 372.459 138.289C370.74 132.426 368.82 130.202 370.841 123.429L371.145 124.339L372.257 120.599L371.448 121.306C371.953 116.454 376.603 110.995 381.254 109.984C386.51 108.872 393.081 112.006 396.012 116.151C399.45 121.003 400.359 127.776 399.045 133.538C396.72 144.355 391.16 143.748 389.644 145.264L401.977 144.456C402.785 140.614 405.11 135.054 406.425 131.112C411.378 116.05 409.154 103.717 397.124 92.6983C392.575 88.5536 390.25 88.958 384.691 91.7885C368.516 99.9767 365.888 111.501 350.523 109.479C341.222 108.266 333.337 103.11 324.037 100.583C315.647 98.3592 302.809 97.7527 296.339 104.526C289.162 112.107 291.79 122.823 294.823 131.921C298.866 143.748 305.235 152.037 306.448 155.07V155.07Z" fill="#CCA586"/>
<path fill-rule="evenodd" clip-rule="evenodd" d="M297.451 332.885L302.101 327.426L300.382 319.44C287.746 317.115 271.673 322.675 261.362 330.257C246.603 341.275 246.199 347.745 236.798 357.146C223.656 370.288 207.987 379.79 189.084 370.894C179.48 366.345 168.462 354.114 164.924 343.904C161.082 332.683 170.18 331.166 170.18 325.404C170.18 323.281 168.866 320.956 167.148 319.743C158.959 314.082 144.908 330.964 151.883 349.463C155.522 359.37 166.036 372.714 174.325 378.173C186.658 386.361 199.294 390.708 214.76 386.765C230.935 382.722 244.885 370.793 254.488 358.056C264.395 344.813 272.179 336.221 289.364 333.188C292.093 332.683 294.924 332.986 297.754 332.885H297.451Z" fill="#684224"/>
<path fill-rule="evenodd" clip-rule="evenodd" d="M283.602 404.556C281.075 405.466 278.345 405.264 275.515 405.264C274.201 405.264 273.089 405.668 272.28 405.264C271.168 405.769 268.944 405.668 267.529 405.871C260.655 406.983 252.568 408.6 248.423 414.867C245.795 418.911 246.3 419.315 246.3 424.269L247.008 425.886C248.625 426.998 247.816 427.099 250.141 427.908L251.355 428.009C249.535 421.944 248.423 417.091 254.286 412.947C258.633 409.813 266.72 408.903 271.977 409.105C269.551 410.521 261.463 409.813 256.005 413.553C249.737 417.9 251.961 421.944 253.073 427.908C256.409 430.233 257.622 430.132 261.767 429.626C260.655 423.359 260.25 417.9 266.922 414.766C271.37 412.644 281.378 412.037 285.927 413.351C279.76 413.958 274.504 412.846 268.54 415.878C263.687 418.406 261.767 424.269 264.193 429.323C266.012 432.154 270.764 431.85 273.796 431.85C278.851 431.648 284.208 430.637 289.061 429.626C291.285 429.121 293.913 428.312 296.036 428.009C297.148 427.807 301.596 429.02 302.91 429.525C308.267 430.132 315.344 431.244 320.499 429.323C334.652 426.493 328.788 414.463 323.633 406.78L322.925 407.387L317.669 402.939L322.521 412.947C319.994 412.644 313.726 409.712 311.199 408.499C305.033 405.365 306.044 405.365 301.798 401.625L291.285 406.477L291.79 404.86C288.555 405.264 284.512 407.892 280.771 407.589L283.299 404.455L283.602 404.556Z" fill="#DDB18A"/>
<path fill-rule="evenodd" clip-rule="evenodd" d="M378.119 410.318C373.469 420.528 382.871 424.976 391.665 425.482C396.72 425.785 402.785 425.178 407.738 423.864C410.569 422.449 416.129 424.673 419.364 425.28C423.609 426.088 427.451 426.695 431.798 427.099L437.863 426.897C439.581 426.695 441.3 426.088 442.311 424.673C445.141 419.214 442.816 413.25 437.357 410.925C431.191 408.196 425.53 408.903 418.959 408.802C426.339 408.6 431.292 406.78 438.874 409.813C444.636 412.138 447.062 418.406 444.737 424.37L445.445 425.077C448.376 425.28 451.207 425.583 453.127 423.258C454.644 421.438 455.25 416.384 454.543 413.958C452.015 405.062 436.852 404.86 429.675 404.455C434.325 403.343 453.329 403.95 456.261 413.25C457.676 417.496 456.261 419.416 455.25 423.258C457.474 423.157 458.788 422.449 459.9 420.528C461.922 410.723 455.149 405.163 446.759 402.636C435.032 399.098 423.407 402.13 418.858 398.087L416.735 398.289L420.678 403.444C417.948 402.939 415.32 400.108 412.49 399.603L414.815 408.196L401.875 400.108L393.485 410.015L394.091 405.972L383.679 411.228L386.105 404.759C384.185 406.073 379.434 408.701 378.322 410.318H378.119Z" fill="#DDB18A"/>
<path fill-rule="evenodd" clip-rule="evenodd" d="M264.698 132.729C268.135 133.437 271.876 132.83 275.11 131.617C279.862 129.798 278.952 129.495 281.681 126.159C281.075 123.732 278.446 120.397 276.627 119.082C272.482 116.05 271.572 119.689 269.753 121.61C269.955 118.779 272.684 113.826 276.324 115.039C279.659 116.151 280.67 119.992 282.692 122.014C282.793 118.375 280.064 109.075 277.638 106.244C272.785 100.482 268.843 108.974 266.619 112.309C267.226 108.771 272.988 97.8538 278.143 102.201C279.659 103.515 281.58 107.862 282.288 109.984C282.995 112.006 284.208 118.072 285.017 119.183C286.635 109.378 285.624 104.222 281.479 95.4276C280.873 95.4276 280.974 95.6298 280.974 95.0233C278.143 94.2146 272.179 89.2612 265.103 89.2612C256.712 89.2612 255.6 93.4059 254.589 100.381C253.781 105.84 255.398 113.927 257.117 118.88C259.24 124.946 261.362 127.675 264.698 132.83V132.729Z" fill="#CCA586"/>
<path fill-rule="evenodd" clip-rule="evenodd" d="M326.059 150.622C331.72 148.701 336.067 147.185 338.493 141.322C340.313 136.975 340.212 132.123 338.897 127.574C338.291 125.451 337.482 125.249 336.775 123.631C334.854 119.689 328.687 115.544 324.037 115.544C318.478 115.443 314.434 120.093 312.715 125.046C310.795 130.606 310.593 137.48 313.322 142.636C315.647 146.983 320.701 151.127 325.958 150.622H326.059Z" fill="#FEFEFE"/>
<path fill-rule="evenodd" clip-rule="evenodd" d="M417.746 85.6219C417.342 92.9003 417.645 94.2145 419.061 101.19C420.375 99.8754 420.88 96.9439 421.79 95.1243C424.519 89.6655 429.776 82.7915 436.852 86.3296C431.292 87.2394 429.372 87.947 425.732 92.1927C423.61 94.6188 420.476 100.684 420.274 103.919L420.779 104.627C424.014 102.403 427.754 95.1243 432.91 96.5395C434.022 98.3591 434.325 100.28 433.819 102.403C431.191 92.2938 422.7 106.042 422.093 106.648C424.115 110.389 432.91 111.501 436.852 110.692C440.997 100.785 449.893 90.272 441.603 77.737C438.571 73.0869 432.606 69.2456 427.148 72.7837C425.126 74.0978 423.104 76.5239 421.689 78.4446C420.172 80.5675 419.364 83.8023 417.746 85.6219V85.6219Z" fill="#CCA586"/>
<path fill-rule="evenodd" clip-rule="evenodd" d="M228.711 324.293C228.61 325.809 228.306 326.214 228.306 327.932C228.509 346.735 246.098 346.229 245.997 328.64C245.997 325.91 245.997 323.383 246.401 320.755C246.705 318.935 247.311 315.094 247.311 313.476C247.715 309.837 248.322 306.501 244.683 304.277C240.841 301.952 238.617 303.772 235.888 306.299C232.552 309.433 229.014 319.643 228.711 324.293Z" fill="#DDB18A"/>
<path fill-rule="evenodd" clip-rule="evenodd" d="M372.155 120.498C374.177 117.263 376.906 115.747 380.647 117.465C373.672 117.566 374.986 126.563 381.253 125.755C383.78 123.935 383.578 123.126 383.679 119.993L384.286 121.206C387.42 125.047 385.802 134.044 380.647 135.56C377.513 136.47 374.784 134.752 373.166 132.427C371.043 129.293 371.245 127.878 371.043 124.238L370.74 123.329C368.718 130.101 370.639 132.224 372.357 138.189C374.581 139.098 374.784 140.311 376.098 141.929C378.928 143.748 383.073 144.962 386.51 144.759C394.9 143.546 400.157 131.82 393.99 119.892C387.116 106.649 374.278 113.321 372.155 120.599V120.498Z" fill="#FEFEFE"/>
<path fill-rule="evenodd" clip-rule="evenodd" d="M469.605 324.595C471.121 328.336 472.335 331.57 473.244 335.412C474.761 341.578 473.446 344.409 476.985 346.43C482.039 349.261 486.386 341.578 483.96 334.098C483.454 332.48 482.14 330.054 481.837 328.639C483.151 329.549 485.779 334.502 486.487 336.221C487.7 339.253 489.216 341.78 493.765 341.174C502.358 340.163 498.213 329.852 494.271 326.112C493.361 325.404 491.744 325.202 490.632 324.494C489.52 323.686 488.711 322.877 487.7 322.068C485.88 320.754 482.544 319.137 481.129 317.822C480.725 320.956 472.638 323.888 469.605 324.595V324.595Z" fill="#C79E7C"/>
<path fill-rule="evenodd" clip-rule="evenodd" d="M200.911 309.028C199.597 310.14 198.283 310.545 196.665 312.061C195.25 313.375 194.138 314.386 193.026 316.004C190.6 319.441 188.881 322.069 188.78 326.517C189.387 329.448 191.409 329.853 194.138 329.752C197.777 329.651 197.272 328.336 200.001 326.618C202.731 325 209.605 321.665 212.435 321.462C215.67 319.441 215.973 322.069 218.5 317.318C220.118 314.386 220.219 311.758 217.692 309.332C213.042 304.985 206.067 307.108 200.81 308.927L200.911 309.028Z" fill="#DDB18A"/>
<path fill-rule="evenodd" clip-rule="evenodd" d="M481.028 317.822C482.443 319.137 485.779 320.754 487.599 322.068C488.711 322.877 489.418 323.787 490.53 324.494C491.642 325.202 493.159 325.404 494.169 326.112C496.596 325.91 498.011 325.202 499.729 323.483C500.336 318.631 496.798 316.407 493.765 313.375C490.935 310.544 487.093 309.23 483.555 307.511C478.298 306.399 472.233 303.973 468.291 309.432C468.796 312.566 471.121 313.577 473.75 314.588C475.468 315.295 479.714 317.721 480.927 317.721L481.028 317.822Z" fill="#DDB18A"/>
<path fill-rule="evenodd" clip-rule="evenodd" d="M304.123 170.435C302.809 172.558 303.617 175.186 304.426 177.41L305.639 173.165C307.459 173.569 309.683 175.186 311.502 175.995C318.275 179.028 324.239 180.645 331.417 182.768C350.522 188.328 372.459 187.62 389.442 176.298C392.575 174.277 397.124 171.244 399.449 168.616C401.471 166.392 406.93 161.742 407.84 159.113C406.425 160.326 405.11 162.045 403.594 163.46C402.179 164.774 400.46 166.189 398.944 167.403C388.127 176.298 375.087 181.252 361.137 182.667C331.113 185.7 306.953 170.941 304.022 170.435H304.123Z" fill="#68422B"/>
<path fill-rule="evenodd" clip-rule="evenodd" d="M455.958 330.762C458.586 334.503 458.99 345.42 460.709 346.937C462.225 348.251 471.93 351.688 469.403 337.232C468.796 333.997 466.875 328.134 466.774 325.405L456.059 325.607L455.958 330.762V330.762Z" fill="#C79E7C"/>
<path fill-rule="evenodd" clip-rule="evenodd" d="M324.442 151.229L326.16 151.128V150.622C320.904 151.027 315.849 146.983 313.524 142.636C310.795 137.481 310.997 130.607 312.918 125.047C314.636 120.194 318.579 115.544 324.24 115.544C328.89 115.544 335.056 119.689 336.977 123.631C336.673 120.397 330.709 113.219 324.24 113.017C318.174 112.815 312.412 117.162 309.986 122.317C305.033 132.729 310.694 152.846 324.543 151.128L324.442 151.229Z" fill="#231F20"/>
<path fill-rule="evenodd" clip-rule="evenodd" d="M181.401 326.82C179.885 321.664 183.12 317.014 186.557 313.779C187.77 312.667 190.802 310.645 192.42 309.938C196.969 308.017 197.171 309.736 200.911 308.927C199.496 308.017 198.182 309.028 195.756 307.916C193.936 307.006 192.521 306.905 190.6 306.703C184.636 307.714 173.718 314.082 175.437 322.877C176.448 328.134 178.773 327.123 181.401 326.82Z" fill="#BA9178"/>
<path fill-rule="evenodd" clip-rule="evenodd" d="M372.155 120.498C374.379 113.22 387.218 106.548 393.99 119.79C400.157 131.719 394.9 143.546 386.51 144.658C386.914 145.265 388.532 145.063 389.442 145.164C390.958 143.647 396.518 144.153 398.843 133.437C400.157 127.675 399.247 120.902 395.81 116.05C392.879 111.906 386.409 108.772 381.051 109.884C376.3 110.895 371.751 116.353 371.246 121.206L372.054 120.498H372.155Z" fill="#231F20"/>
<path fill-rule="evenodd" clip-rule="evenodd" d="M181.401 326.819C183.625 328.942 186.455 327.628 188.78 326.415C188.881 321.967 190.6 319.339 193.026 315.902C194.138 314.284 195.351 313.374 196.665 311.959C198.182 310.443 199.597 309.937 200.911 308.927C197.171 309.735 196.969 308.017 192.42 309.937C190.701 310.645 187.77 312.566 186.556 313.779C183.119 317.014 179.885 321.664 181.401 326.819V326.819Z" fill="#CCA586"/>
<path fill-rule="evenodd" clip-rule="evenodd" d="M336.976 125.552C336.976 125.552 340.11 136.166 332.63 138.693C327.575 140.311 322.218 136.57 322.218 131.415C326.969 136.469 332.529 134.953 333.135 130.505C331.518 130.707 332.023 130.808 330.81 130C325.958 127.978 325.958 121.104 333.337 121.205C322.723 114.937 316.86 130 323.431 136.874C333.236 147.084 341.93 132.123 336.976 125.754V125.552Z" fill="#3B2313"/>
<path fill-rule="evenodd" clip-rule="evenodd" d="M281.681 126.159C283.096 124.238 284.107 121.407 284.916 119.082C284.107 117.97 282.894 111.905 282.187 109.883C281.479 107.862 279.659 103.414 278.042 102.1C272.988 97.7527 267.124 108.569 266.518 112.208C268.843 108.872 272.684 100.381 277.537 106.143C279.963 108.974 282.692 118.274 282.591 121.913C280.569 119.992 279.659 116.05 276.222 114.938C272.583 113.826 269.854 118.678 269.652 121.509C271.471 119.487 272.381 115.848 276.526 118.981C278.345 120.296 280.974 123.733 281.58 126.058L281.681 126.159Z" fill="#A37352"/>
<path fill-rule="evenodd" clip-rule="evenodd" d="M372.155 120.497L371.043 124.238C371.246 127.877 371.043 129.292 373.166 132.426C374.784 134.751 377.513 136.469 380.647 135.559C385.802 134.043 387.42 125.046 384.286 121.205C383.68 121.104 386.611 130.404 382.467 133.74C378.524 136.874 373.065 133.437 372.863 129.393C374.986 130.303 376.199 131.213 378.827 130.505C381.051 129.899 381.456 127.675 381.253 125.754C374.986 126.664 373.672 117.667 380.647 117.465C376.806 115.645 374.177 117.262 372.155 120.497Z" fill="#3B2313"/>
<path fill-rule="evenodd" clip-rule="evenodd" d="M330.81 129.899C331.922 130.809 331.518 130.607 333.135 130.405C332.427 134.852 326.868 136.369 322.218 131.314C322.218 136.47 327.575 140.21 332.63 138.593C340.11 136.167 336.976 125.451 336.976 125.451L336.572 124.44C336.673 128.484 334.955 130.303 330.81 129.798V129.899Z" fill="#895E3B"/>
<path fill-rule="evenodd" clip-rule="evenodd" d="M342.537 147.691C343.143 150.925 347.187 154.666 350.118 155.373C347.591 152.947 342.537 150.319 345.468 145.467C348.4 140.614 363.462 136.065 370.235 139.199C375.694 141.726 374.582 146.073 374.582 150.824C376.098 148.398 376.502 144.86 375.997 141.827C374.683 140.21 374.481 138.997 372.257 138.087C366.393 135.762 359.621 136.773 353.757 138.593C349.613 139.907 342.334 142.535 342.435 147.691H342.537Z" fill="#A37352"/>
<path fill-rule="evenodd" clip-rule="evenodd" d="M381.253 125.754C381.456 127.776 381.051 129.899 378.827 130.505C376.199 131.213 374.885 130.303 372.863 129.393C373.065 133.437 378.524 136.874 382.466 133.74C386.611 130.404 383.68 121.104 384.286 121.205L383.68 119.992C383.578 123.126 383.882 123.934 381.253 125.754V125.754Z" fill="#895E3B"/>
<path fill-rule="evenodd" clip-rule="evenodd" d="M261.969 429.728L264.395 429.425C261.867 424.471 263.788 418.507 268.741 415.98C274.807 412.846 279.962 414.059 286.129 413.453C281.681 412.139 271.572 412.745 267.124 414.868C260.452 418.002 260.857 423.46 261.969 429.728V429.728Z" fill="#C79E7C"/>
<path fill-rule="evenodd" clip-rule="evenodd" d="M442.21 424.673L445.344 424.977L444.636 424.269C447.062 418.305 444.535 411.936 438.773 409.712C431.191 406.679 426.238 408.499 418.859 408.701C425.328 408.903 430.989 408.095 437.257 410.824C442.614 413.25 445.041 419.113 442.21 424.572V424.673Z" fill="#C79E7C"/>
<path fill-rule="evenodd" clip-rule="evenodd" d="M345.569 191.968C346.479 192.17 348.197 193.181 349.309 193.585C357.194 196.618 367.202 197.022 374.379 192.372C376.603 190.957 380.04 188.935 380.95 186.812C375.693 189.44 374.177 192.069 365.18 193.686C361.743 194.293 358.104 194.394 354.667 193.989C351.331 193.585 348.399 192.372 345.569 191.968V191.968Z" fill="#A37352"/>
<path fill-rule="evenodd" clip-rule="evenodd" d="M453.128 423.157L455.25 423.258C456.261 419.518 457.677 417.597 456.261 413.25C453.229 403.95 434.325 403.344 429.675 404.456C436.852 404.759 452.016 405.062 454.543 413.958C455.25 416.384 454.644 421.337 453.128 423.258V423.157Z" fill="#C79E7C"/>
<path fill-rule="evenodd" clip-rule="evenodd" d="M251.456 428.111L253.174 428.01C251.961 422.046 249.838 418.002 256.106 413.655C261.565 409.915 269.753 410.623 272.078 409.207C266.821 409.106 258.734 410.016 254.387 413.049C248.524 417.193 249.636 422.046 251.456 428.111V428.111Z" fill="#C79E7C"/>
<path fill-rule="evenodd" clip-rule="evenodd" d="M419.061 101.088L420.274 103.717C420.476 100.482 423.61 94.5175 425.733 91.9903C429.372 87.7446 431.292 87.0369 436.852 86.1271C429.877 82.589 424.621 89.4631 421.79 94.9219C420.88 96.7414 420.375 99.673 419.061 100.987V101.088Z" fill="#A37352"/>
<path fill-rule="evenodd" clip-rule="evenodd" d="M354.364 260.607C357.498 257.878 358.812 252.116 358.812 247.87C358.913 241.4 356.891 238.772 355.172 234.425C356.284 238.165 356.992 243.523 356.891 247.465C356.79 255.047 354.768 257.17 354.263 260.506L354.364 260.607Z" fill="#A37352"/>
<path fill-rule="evenodd" clip-rule="evenodd" d="M420.678 104.526L422.093 106.548C422.599 105.941 431.191 92.1932 433.82 102.302C434.325 100.179 434.022 98.2585 432.91 96.4389C427.653 94.9226 424.014 102.302 420.779 104.526H420.678Z" fill="#A37352"/>
<path fill-rule="evenodd" clip-rule="evenodd" d="M347.389 148.803C349.916 149.106 350.826 149.207 353.252 150.117C354.566 150.622 357.396 151.936 358.508 152.037C356.891 151.026 347.287 141.221 347.287 148.803H347.389Z" fill="#A37352"/>
<path fill-rule="evenodd" clip-rule="evenodd" d="M364.574 150.42C367.708 147.488 368.011 145.769 372.762 147.892C372.863 146.174 372.459 144.455 370.943 143.242C368.213 143.242 365.079 147.892 364.574 150.318V150.42Z" fill="#A37352"/>
<path fill-rule="evenodd" clip-rule="evenodd" d="M417.342 52.869L417.746 52.7679L417.544 52.4646L417.342 52.869Z" fill="#754C29"/>
<defs>
<filter id="filter0_d" x="0" y="31" width="580" height="580" filterUnits="userSpaceOnUse" color-interpolation-filters="sRGB">
<feFlood flood-opacity="0" result="BackgroundImageFix"/>
<feColorMatrix in="SourceAlpha" type="matrix" values="0 0 0 0 0 0 0 0 0 0 0 0 0 0 0 0 0 0 127 0"/>
<feOffset dx="-30" dy="30"/>
<feGaussianBlur stdDeviation="35"/>
<feColorMatrix type="matrix" values="0 0 0 0 0.0784314 0 0 0 0 0.0784314 0 0 0 0 0.0784314 0 0 0 0.2 0"/>
<feBlend mode="normal" in2="BackgroundImageFix" result="effect1_dropShadow"/>
<feBlend mode="normal" in="SourceGraphic" in2="effect1_dropShadow" result="shape"/>
</filter>
<filter id="filter1_d" x="60" y="7" width="540" height="540" filterUnits="userSpaceOnUse" color-interpolation-filters="sRGB">
<feFlood flood-opacity="0" result="BackgroundImageFix"/>
<feColorMatrix in="SourceAlpha" type="matrix" values="0 0 0 0 0 0 0 0 0 0 0 0 0 0 0 0 0 0 127 0"/>
<feOffset dy="-4"/>
<feGaussianBlur stdDeviation="25"/>
<feColorMatrix type="matrix" values="0 0 0 0 0.00392157 0 0 0 0 0.184314 0 0 0 0 0.32549 0 0 0 0.1 0"/>
<feBlend mode="normal" in2="BackgroundImageFix" result="effect1_dropShadow"/>
<feBlend mode="normal" in="SourceGraphic" in2="effect1_dropShadow" result="shape"/>
</filter>
<radialGradient id="paint0_radial" cx="0" cy="0" r="1" gradientUnits="userSpaceOnUse" gradientTransform="translate(320 71) rotate(90) scale(440)">
<stop stop-color="#2CDD82"/>
<stop offset="1" stop-color="#012F53"/>
</radialGradient>
</defs>
</svg>
