<svg xmlns="http://www.w3.org/2000/svg" xmlns:xlink="http://www.w3.org/1999/xlink" width="354" height="42" viewBox="0 0 354 42"><defs><style>.a,.k{fill:none;}.a{stroke:#585858;}.b{fill:#585858;font-size:15px;font-family:Poppins-SemiBold, Poppins;font-weight:600;}.c{fill:#e0e0e0;}.d{fill:#fff;}.e{clip-path:url(#a);}.f{fill:#fbbc05;}.g{fill:#ea4335;}.h{fill:#34a853;}.i{fill:#4285f4;}.j{stroke:none;}</style><clipPath id="a"><path d="M-351.309,292.708h-8.437v3.5h4.856c-.453,2.222-2.346,3.5-4.856,3.5a5.34,5.34,0,0,1-5.35-5.35,5.34,5.34,0,0,1,5.35-5.35,5.234,5.234,0,0,1,3.334,1.194l2.634-2.634a9.013,9.013,0,0,0-5.968-2.264,9.028,9.028,0,0,0-9.054,9.054,9.028,9.028,0,0,0,9.054,9.054c4.527,0,8.643-3.292,8.643-9.054A7.513,7.513,0,0,0-351.309,292.708Z" transform="translate(368.8 -285.3)"/></clipPath></defs><g class="a"><rect class="j" width="354" height="42" rx="7"/><rect class="k" x="0.5" y="0.5" width="353" height="41" rx="6.5"/></g><text class="b" transform="translate(177 27)"><tspan x="-82.695" y="0">Continue com Google</tspan></text><g transform="translate(20.919 7.132)"><circle class="c" cx="13.54" cy="13.54" r="13.54"/><circle class="d" cx="13.334" cy="13.334" r="13.334" transform="translate(0.206)"/><g transform="translate(4.692 4.362)"><g class="e" transform="translate(0)"><path class="f" d="M-370.8,305V294.3l7,5.35Z" transform="translate(369.977 -290.596)"/></g><g class="e" transform="translate(0)"><path class="g" d="M-370.8,287.827l7,5.35,2.881-2.51,9.877-1.605V283.3H-370.8Z" transform="translate(369.977 -284.123)"/></g><g transform="translate(0)"><g class="e"><path class="h" d="M-370.8,298.528l12.347-9.466,3.251.412,4.157-6.173v19.755H-370.8Z" transform="translate(369.977 -284.123)"/></g></g><g transform="translate(0)"><g class="e"><path class="i" d="M-343.4,309.528l-12.758-9.877-1.646-1.235,14.4-4.116Z" transform="translate(362.327 -290.596)"/></g></g></g></g></svg>