<svg width="205" height="137" viewBox="0 0 205 137" fill="none" xmlns="http://www.w3.org/2000/svg">
<path d="M102.043 52.691C45.687 52.691 3.05176e-05 90.127 3.05176e-05 136.303H204.087C204.087 90.126 158.398 52.691 102.043 52.691Z" fill="#CCE3FF"/>
<path d="M77.086 0L37.537 47.986L96.069 117.065L135.09 71.189L77.086 0Z" fill="#2CDD82"/>
<path opacity="0.1" d="M77.086 0L37.537 47.986L96.069 117.065L135.09 71.189L77.086 0Z" fill="black"/>
<path d="M39.119 48.513C39.994 46.9386 41.0789 45.4903 42.344 44.208L78.668 7.38303C78.668 7.38303 91.324 5.27403 93.96 11.602L47.56 49.569L39.119 48.513Z" fill="#F2F2F2"/>
<path d="M37.2679 47.723L91.054 129.985C91.054 129.985 96.3269 133.676 101.6 131.567L156.7 94.391L98.1779 5.80103L45.446 46.932L37.2679 47.723Z" fill="#2CDD82"/>
<path d="M91.5996 18.6184L57.8521 42.89L58.3514 43.5843L92.0989 19.3127L91.5996 18.6184Z" fill="#3F3D56"/>
<path d="M57.4061 51.9671L56.693 52.439L101.015 119.403L101.728 118.931L57.4061 51.9671Z" fill="#3F3D56"/>
<path d="M142.214 94.5677L106.365 120.944L106.872 121.633L142.721 95.2564L142.214 94.5677Z" fill="#3F3D56"/>
<path d="M98.002 19.7932L97.301 20.281L143.178 86.1954L143.879 85.7076L98.002 19.7932Z" fill="#3F3D56"/>
<path d="M83.8314 6.85952L42.105 45.155L42.4613 45.5433L84.1877 7.24778L83.8314 6.85952Z" fill="#3F3D56"/>
<path d="M87.3073 7.18748L43.698 45.687L44.0474 46.0828L87.6567 7.5833L87.3073 7.18748Z" fill="#3F3D56"/>
<path d="M90.0269 7.97096L44.764 45.69L45.102 46.0955L90.3648 8.37647L90.0269 7.97096Z" fill="#3F3D56"/>
</svg>
