<svg width="163" height="190" viewBox="0 0 163 190" fill="none" xmlns="http://www.w3.org/2000/svg">
<g filter="url(#filter0_d)">
<rect x="51" y="31" width="61" height="88" rx="30.5" stroke="#CAFFCF" stroke-width="2"/>
</g>
<g filter="url(#filter1_d)">
<rect x="57" y="38" width="50" height="75" rx="25" fill="white"/>
</g>
<path d="M81.1161 85.8839C81.6043 86.372 82.3957 86.372 82.8839 85.8839L90.8388 77.9289C91.327 77.4408 91.327 76.6493 90.8388 76.1612C90.3507 75.673 89.5592 75.673 89.0711 76.1612L82 83.2322L74.9289 76.1612C74.4408 75.673 73.6493 75.673 73.1612 76.1612C72.673 76.6493 72.673 77.4408 73.1612 77.9289L81.1161 85.8839ZM80.75 65V85H83.25V65H80.75Z" fill="#221314"/>
<defs>
<filter id="filter0_d" x="0" y="0" width="163" height="190" filterUnits="userSpaceOnUse" color-interpolation-filters="sRGB">
<feFlood flood-opacity="0" result="BackgroundImageFix"/>
<feColorMatrix in="SourceAlpha" type="matrix" values="0 0 0 0 0 0 0 0 0 0 0 0 0 0 0 0 0 0 127 0"/>
<feOffset dy="20"/>
<feGaussianBlur stdDeviation="25"/>
<feColorMatrix type="matrix" values="0 0 0 0 0.0784314 0 0 0 0 0.0784314 0 0 0 0 0.0784314 0 0 0 0.15 0"/>
<feBlend mode="normal" in2="BackgroundImageFix" result="effect1_dropShadow"/>
<feBlend mode="normal" in="SourceGraphic" in2="effect1_dropShadow" result="shape"/>
</filter>
<filter id="filter1_d" x="7" y="8" width="150" height="175" filterUnits="userSpaceOnUse" color-interpolation-filters="sRGB">
<feFlood flood-opacity="0" result="BackgroundImageFix"/>
<feColorMatrix in="SourceAlpha" type="matrix" values="0 0 0 0 0 0 0 0 0 0 0 0 0 0 0 0 0 0 127 0"/>
<feOffset dy="20"/>
<feGaussianBlur stdDeviation="25"/>
<feColorMatrix type="matrix" values="0 0 0 0 0.0784314 0 0 0 0 0.0784314 0 0 0 0 0.0784314 0 0 0 0.15 0"/>
<feBlend mode="normal" in2="BackgroundImageFix" result="effect1_dropShadow"/>
<feBlend mode="normal" in="SourceGraphic" in2="effect1_dropShadow" result="shape"/>
</filter>
</defs>
</svg>
