<svg width="158" height="127" viewBox="0 0 158 127" fill="none" xmlns="http://www.w3.org/2000/svg">
<path opacity="0.1" d="M92.219 22.125C82.269 21.779 72.792 18.568 63.743 15.053C54.694 11.538 45.732 7.64501 36.02 5.78301C29.774 4.58301 22.63 4.41602 17.598 7.76502C12.754 10.993 11.189 16.551 10.348 21.713C9.71498 25.596 9.34298 29.683 11.078 33.318C12.278 35.842 14.42 37.964 15.898 40.39C21.043 48.802 17.408 59.176 11.832 67.39C9.21898 71.244 6.18198 74.923 4.16498 79.022C2.14798 83.121 1.21298 87.822 2.97798 92.008C4.72898 96.159 8.89998 99.27 13.417 101.461C22.593 105.912 33.402 107.185 43.95 107.906C67.291 109.506 90.756 108.812 114.159 108.12C122.82 107.863 131.519 107.603 140.039 106.264C144.771 105.52 149.655 104.341 153.091 101.491C155.183 99.8297 156.594 97.4601 157.059 94.8294C157.523 92.1987 157.008 89.489 155.611 87.212C150.711 79.604 137.163 77.712 133.732 69.548C131.847 65.054 133.784 60.048 136.524 55.879C142.403 46.938 152.256 39.093 152.775 28.873C153.132 21.852 148.394 14.823 141.07 11.501C133.394 8.00702 122.746 8.44901 117.086 14.213C111.252 20.151 101.004 22.43 92.219 22.125Z" fill="#2CDD82"/>
<path d="M66.944 107.152L14.324 106.895L9.09497 94.632L27.583 93.29L24.361 79.844L60.928 75.104L25.912 62.932L29.005 62.197L85.31 71.383L82.21 92.366L77.778 103.898L66.944 107.152Z" fill="#2CDD82"/>
<path d="M15.13 101.759C15.13 101.759 18.358 101.243 20.295 103.524C20.295 103.524 18.874 104.643 15.818 103.094L15.13 101.759Z" fill="#2CDD82"/>
<path d="M14.793 101.708C14.793 101.708 12.733 104.243 13.748 107.066C13.748 107.066 15.427 106.394 15.61 102.972L14.793 101.708Z" fill="#2CDD82"/>
<path d="M12.941 97.5411C12.941 97.5411 14.232 95.172 19.398 98.488C19.1115 99.006 18.6734 99.4239 18.1425 99.6856C17.6116 99.9473 17.0133 100.04 16.428 99.952C15.663 99.9869 14.9078 99.77 14.2779 99.3345C13.6481 98.899 13.1784 98.269 12.941 97.5411Z" fill="#2CDD82"/>
<path d="M12.607 97.37C12.607 97.37 9.92697 97.063 9.66797 103.197C10.2565 103.261 10.8504 103.142 11.3699 102.859C11.8894 102.575 12.3096 102.139 12.574 101.609C13.0424 101.003 13.2993 100.261 13.3052 99.495C13.3112 98.7294 13.0659 97.9829 12.607 97.37V97.37Z" fill="#2CDD82"/>
<path d="M11.047 92.477C11.047 92.477 12.554 88.302 18.02 91.272C18.02 91.272 16.772 95.103 11.606 93.898L11.047 92.477Z" fill="#2CDD82"/>
<path d="M9.36902 86.235C9.36902 86.235 12.21 82.016 17.246 85.927C17.246 85.927 15.481 89.887 9.79901 87.735L9.36902 86.235Z" fill="#2CDD82"/>
<path d="M8.76599 80.295C8.76599 80.295 12.081 76.42 17.066 80.295C17.066 80.295 13.924 83.695 8.76599 81.285V80.295Z" fill="#2CDD82"/>
<path d="M8.24902 74.525C8.24902 74.525 11.607 70.479 16.385 74.31C16.385 74.31 12.597 77.8831 8.24902 75.4721V74.525Z" fill="#2CDD82"/>
<path d="M8.55103 69.403C8.55103 69.403 12.087 64.194 16.557 67.724C16.557 67.724 12.769 72.201 8.55103 70.393V69.403Z" fill="#2CDD82"/>
<path d="M9.36902 63.42C9.36902 63.42 13.114 58.255 17.462 62.215C17.462 62.215 13.028 66.692 9.36902 64.367V63.42Z" fill="#2CDD82"/>
<path d="M10.617 58.071C10.617 58.071 15.051 53.216 18.917 55.15C18.917 55.15 14.297 60.306 10.417 59.359L10.617 58.071Z" fill="#2CDD82"/>
<path d="M12.167 53.001C12.167 53.001 17.283 47.055 20.26 49.041C20.26 49.041 16.49 53.653 11.805 54.114L12.167 53.001Z" fill="#2CDD82"/>
<path d="M14.403 47.12C14.403 47.12 18.881 42.265 22.153 43.47C22.153 43.47 18.322 48.506 13.802 48.635L14.403 47.12Z" fill="#2CDD82"/>
<path d="M16.428 41.62C16.428 41.62 21.378 36.971 23.528 37.789C23.528 37.789 19.955 42.955 16.21 42.653L16.428 41.62Z" fill="#2CDD82"/>
<path d="M18.408 36.541C18.408 36.541 22.67 30.987 24.996 31.417C24.996 31.417 22.412 36.3691 18.408 37.1051V36.541Z" fill="#2CDD82"/>
<path d="M20.557 29.692C20.557 29.692 24.323 25.435 26.357 25.444C26.357 25.444 23.384 31.132 20.4 31.08L20.557 29.692Z" fill="#2CDD82"/>
<path d="M21.83 25.132L25.469 16.265C25.469 16.265 25.65 24.281 21.369 26.777L21.83 25.132Z" fill="#2CDD82"/>
<path d="M23.308 15.353C23.308 15.353 23.908 7.94803 23.523 7.34503C23.523 7.34503 26.123 13.502 23.283 18.624L23.308 15.353Z" fill="#2CDD82"/>
<path d="M10.905 92.3791C10.905 92.3791 7.132 90.0411 4.69 95.7611C4.69 95.7611 8.04801 97.99 11.35 93.838L10.905 92.3791Z" fill="#2CDD82"/>
<path d="M9.24499 85.996C9.24499 85.996 4.61799 83.885 2.37299 89.858C2.37299 89.858 5.94699 92.318 9.66599 87.506L9.24499 85.996Z" fill="#2CDD82"/>
<path d="M8.54903 80.65C8.54903 80.65 5.23402 76.774 0.249023 80.65C0.249023 80.65 3.39103 84.0501 8.54903 81.6401V80.65Z" fill="#2CDD82"/>
<path d="M8.136 74.525C8.136 74.525 4.778 70.479 0 74.31C0 74.31 3.788 77.8831 8.136 75.4721V74.525Z" fill="#2CDD82"/>
<path d="M8.55099 69.55C8.55099 69.55 6.19599 63.716 1.07599 66.225C1.07599 66.225 3.84299 71.398 8.34099 70.519L8.55099 69.55Z" fill="#2CDD82"/>
<path d="M9.66502 63.39C9.66502 63.39 7.32402 57.454 2.13202 60.206C2.13202 60.206 5.31102 65.647 9.43202 64.306L9.66502 63.39Z" fill="#2CDD82"/>
<path d="M11.117 58.1C11.117 58.1 10.195 51.592 5.89001 51.01C5.89001 51.01 6.80302 57.873 10.537 59.273L11.117 58.1Z" fill="#2CDD82"/>
<path d="M12.276 53.013C12.276 53.013 11.916 45.173 8.35699 44.899C8.35699 44.899 8.47699 50.85 11.874 54.123L12.276 53.013Z" fill="#2CDD82"/>
<path d="M14.772 46.901C14.772 46.901 13.711 40.381 10.314 39.585C10.314 39.585 10.735 45.899 14.436 48.502L14.772 46.901Z" fill="#2CDD82"/>
<path d="M16.831 41.674C16.831 41.674 16.796 34.882 14.72 33.884C14.72 33.884 13.433 40.033 16.23 42.541L16.831 41.674Z" fill="#2CDD82"/>
<path d="M18.566 36.464C18.566 36.464 18.275 29.471 16.126 28.485C16.126 28.485 15.391 34.019 18.244 36.922L18.566 36.464Z" fill="#2CDD82"/>
<path d="M20.857 30.25C20.857 30.25 20.845 24.562 19.31 23.227C19.31 23.227 17.785 29.458 20.056 31.393L20.857 30.25Z" fill="#2CDD82"/>
<path d="M21.65 24.852L20.157 15.385C20.157 15.385 18.129 23.142 21.72 26.561L21.65 24.852Z" fill="#2CDD82"/>
<path d="M21.941 15.442C21.941 15.442 18.11 9.077 18.188 8.37C18.188 8.37 18.595 15.041 23.415 18.363L21.941 15.442Z" fill="#2CDD82"/>
<path d="M22.39 13.562C22.39 13.562 18.774 4.52202 17.138 3.79102C18.7883 4.78249 20.1621 6.17379 21.1326 7.83645C22.1032 9.49911 22.6391 11.3795 22.691 13.304L22.39 13.562Z" fill="#2CDD82"/>
<path d="M20.384 31.134L20.136 31.059C23.188 21.108 23.949 14.759 22.281 13.172L22.458 12.984C24.227 14.663 23.509 20.938 20.384 31.134Z" fill="#444053"/>
<path d="M11.985 54.434L11.619 54.303C11.943 53.391 12.292 52.466 12.658 51.554C15.843 43.615 18.558 36.23 20.294 30.56L20.612 30.406C18.87 36.086 16.206 43.755 13.018 51.706C12.65 52.597 12.302 53.521 11.985 54.434Z" fill="#444053"/>
<path d="M19.679 109.206C16.0103 104.689 13.1535 99.5686 11.236 94.074C9.21573 88.5072 8.09141 82.6551 7.905 76.736C7.82107 68.8373 9.16813 60.9887 11.881 53.57L12.17 53.908C6.199 70.753 8.57 85.187 11.718 93.879C13.6135 99.3195 16.4384 104.39 20.067 108.865L19.679 109.206Z" fill="#444053"/>
<path d="M96.965 97.381C96.965 97.381 93.48 101.635 96.247 108.066L68.421 120.134L65.751 120.694L64.521 115.313L65.344 108.523V104.811L96.965 97.381Z" fill="#D5D6DB"/>
<path d="M9.09497 94.632L47.608 87.611L98.64 95.74L66.94 107.152L9.09497 94.632Z" fill="#2CDD82"/>
<path d="M9.09497 94.632L47.608 87.611L98.64 95.74L66.94 107.152L9.09497 94.632Z" fill="#2CDD82"/>
<path d="M9.09501 94.631C9.09501 94.631 5.495 101.455 9.644 107.758L66.756 120.134C66.756 120.134 63.211 114.698 66.939 107.153L9.09501 94.631Z" fill="#2CDD82"/>
<path opacity="0.1" d="M9.09501 94.631C9.09501 94.631 5.495 101.455 9.644 107.758L66.756 120.134C66.756 120.134 63.211 114.698 66.939 107.153L9.09501 94.631Z" fill="black"/>
<path opacity="0.1" d="M10.797 96.997C10.797 96.997 8.73801 101.99 10.797 105.222Z" fill="black"/>
<path d="M66.756 120.133L98.64 106.528C98.64 106.528 100.423 106.912 99.27 108.219C98.117 109.526 67.37 121.44 67.37 121.44L9.64398 107.758L66.756 120.133Z" fill="#2CDD82"/>
<path opacity="0.1" d="M66.756 120.133L98.64 106.528C98.64 106.528 100.423 106.912 99.27 108.219C98.117 109.526 67.37 121.44 67.37 121.44L9.64398 107.758L66.756 120.133Z" fill="black"/>
<path opacity="0.1" d="M64.143 108.527C64.143 108.527 61.068 112.217 64.143 117.751Z" fill="black"/>
<path opacity="0.1" d="M79.0287 108.464L65.237 113.065L65.2857 113.211L79.0774 108.61L79.0287 108.464Z" fill="black"/>
<path opacity="0.1" d="M81.7902 108.007L65.232 114.303L65.2867 114.447L81.845 108.15L81.7902 108.007Z" fill="black"/>
<path opacity="0.1" d="M84.3267 107.984L65.324 115.762L65.3823 115.905L84.3851 108.126L84.3267 107.984Z" fill="black"/>
<path opacity="0.1" d="M87.0853 107.318L65.546 117.048L65.6094 117.188L87.1487 107.458L87.0853 107.318Z" fill="black"/>
<path opacity="0.1" d="M89.3956 107.308L65.717 117.674L65.7787 117.815L89.4573 107.449L89.3956 107.308Z" fill="black"/>
<path opacity="0.1" d="M94.4724 106.46L66.074 118.726L66.135 118.867L94.5334 106.602L94.4724 106.46Z" fill="black"/>
<path opacity="0.3" d="M23.403 95.382L50.46 89.694L66.943 92.845L44.773 99.994L23.403 95.382Z" fill="white"/>
<path d="M98.639 95.741C98.639 95.741 100.039 96.305 99.217 97.177C98.395 98.049 66.939 107.151 66.939 107.151L98.639 95.741Z" fill="#2CDD82"/>
<path d="M112.229 82.595C112.229 82.595 108.745 86.847 111.513 93.28L83.686 105.348L81.016 105.911L79.786 100.53L80.621 93.741V90.025L112.229 82.595Z" fill="#D5D6DB"/>
<path d="M24.361 79.844L62.873 72.825L113.907 80.954L82.207 92.366L24.361 79.844Z" fill="#3A3768"/>
<path d="M24.355 79.844C24.355 79.844 20.755 86.668 24.902 92.971L82.014 105.347C82.014 105.347 78.47 99.906 82.203 92.364L24.355 79.844Z" fill="#3A3768"/>
<path opacity="0.1" d="M24.355 79.844C24.355 79.844 20.755 86.668 24.902 92.971L82.014 105.347C82.014 105.347 78.47 99.906 82.203 92.364L64.142 88.454L24.355 79.844Z" fill="black"/>
<path opacity="0.1" d="M26.061 82.21C26.061 82.21 24.004 87.2021 26.061 90.4351Z" fill="black"/>
<path d="M82.02 105.347L113.908 91.742C113.908 91.742 115.69 92.126 114.537 93.433C113.384 94.74 82.637 106.654 82.637 106.654L24.908 92.972L82.02 105.347Z" fill="#3A3768"/>
<path opacity="0.1" d="M82.02 105.347L113.908 91.742C113.908 91.742 115.69 92.126 114.537 93.433C113.384 94.74 82.637 106.654 82.637 106.654L24.908 92.972L82.02 105.347Z" fill="black"/>
<path opacity="0.1" d="M79.407 93.74C79.407 93.74 76.332 97.43 79.407 102.964Z" fill="black"/>
<path opacity="0.1" d="M94.2937 93.6797L80.502 98.281L80.5508 98.4271L94.3424 93.8258L94.2937 93.6797Z" fill="black"/>
<path opacity="0.1" d="M97.0573 93.2215L80.499 99.518L80.5538 99.6619L97.112 93.3654L97.0573 93.2215Z" fill="black"/>
<path opacity="0.1" d="M99.5918 93.1959L80.589 100.974L80.6473 101.117L99.6501 93.3384L99.5918 93.1959Z" fill="black"/>
<path opacity="0.1" d="M102.352 92.5311L80.813 102.261L80.8764 102.401L102.416 92.6715L102.352 92.5311Z" fill="black"/>
<path opacity="0.1" d="M104.661 92.5192L80.982 102.885L81.0437 103.026L104.722 92.6602L104.661 92.5192Z" fill="black"/>
<path opacity="0.1" d="M109.738 91.6715L81.34 103.937L81.401 104.078L109.799 91.8128L109.738 91.6715Z" fill="black"/>
<path opacity="0.45" d="M38.669 80.596L65.726 74.908L82.209 78.06L60.039 85.208L38.669 80.596Z" fill="white"/>
<path d="M113.906 80.954C113.906 80.954 115.306 81.518 114.484 82.389C113.662 83.26 82.209 92.3651 82.209 92.3651L113.906 80.954Z" fill="#3A3768"/>
<path d="M113.674 65.679C113.674 65.679 110.189 73.315 112.956 79.746L85.13 88.429L82.466 88.993L81.236 83.615L82.059 76.825V73.109L113.674 65.679Z" fill="#D5D6DB"/>
<path d="M25.81 62.9301L64.32 55.91L115.354 64.04L83.654 75.452L25.81 62.9301Z" fill="#2CDD82"/>
<path d="M25.81 62.929C25.81 62.929 22.202 69.753 26.353 76.056L83.465 88.432C83.465 88.432 79.92 82.991 83.653 75.451L25.81 62.929Z" fill="#2CDD82"/>
<path opacity="0.1" d="M25.81 62.929C25.81 62.929 22.202 69.753 26.353 76.056L83.465 88.432C83.465 88.432 79.92 82.991 83.653 75.451L25.81 62.929Z" fill="black"/>
<path opacity="0.1" d="M27.508 65.295C27.508 65.295 25.449 70.288 27.508 73.5201Z" fill="black"/>
<path d="M83.471 88.432L115.356 78.206C115.356 78.206 117.139 78.59 115.986 79.897C114.833 81.204 84.086 89.736 84.086 89.736L26.359 76.056L83.471 88.432Z" fill="#2CDD82"/>
<path opacity="0.1" d="M83.471 88.432L115.356 78.206C115.356 78.206 117.139 78.59 115.986 79.897C114.833 81.204 84.086 89.736 84.086 89.736L26.359 76.056L83.471 88.432Z" fill="black"/>
<path opacity="0.1" d="M80.858 76.8251C80.858 76.8251 77.783 80.5151 80.858 86.0491Z" fill="black"/>
<path opacity="0.1" d="M95.7457 76.7637L81.954 81.365L82.0027 81.5111L95.7944 76.9098L95.7457 76.7637Z" fill="black"/>
<path opacity="0.1" d="M98.5083 76.3065L81.95 82.603L82.0047 82.747L98.563 76.4505L98.5083 76.3065Z" fill="black"/>
<path opacity="0.1" d="M101.042 76.2819L82.039 84.06L82.0973 84.2025L101.1 76.4244L101.042 76.2819Z" fill="black"/>
<path opacity="0.1" d="M103.803 75.6161L82.264 85.346L82.3274 85.4864L103.867 75.7565L103.803 75.6161Z" fill="black"/>
<path opacity="0.1" d="M106.113 75.6052L82.434 85.971L82.4958 86.1121L106.174 75.7462L106.113 75.6052Z" fill="black"/>
<path opacity="0.1" d="M111.19 74.7585L82.792 87.024L82.8531 87.1654L111.251 74.8999L111.19 74.7585Z" fill="black"/>
<path opacity="0.3" d="M40.118 63.681L67.175 57.993L83.658 61.145L61.486 68.294L40.118 63.681Z" fill="white"/>
<path d="M115.356 64.0391C115.356 64.0391 116.756 64.603 115.934 65.475C115.112 66.347 83.659 75.451 83.659 75.451L115.356 64.0391Z" fill="#2CDD82"/>
<path d="M47.722 17.371C47.722 17.371 41.88 17.019 42.563 21.117C42.5275 21.3249 42.5587 21.5388 42.6521 21.7279C42.7455 21.917 42.8963 22.0718 43.083 22.17C43.083 22.17 43.094 21.863 43.683 21.97C43.8929 22.0061 44.1065 22.0165 44.319 22.001C44.6055 21.9813 44.8778 21.869 45.095 21.681V21.681C45.095 21.681 46.738 21.001 47.378 18.314C47.378 18.314 47.852 17.728 47.839 17.578L46.849 17.999C47.0369 18.4076 47.0626 18.8722 46.921 19.299C46.921 19.299 46.889 18.021 46.698 18.051C46.66 18.051 46.186 18.298 46.186 18.298C46.5034 18.9682 46.5538 19.7341 46.327 20.44C46.327 20.44 46.493 18.912 46.004 18.388L45.309 18.794C45.6857 19.5102 45.764 20.3463 45.527 21.12C45.6034 20.3583 45.4778 19.5899 45.163 18.892L44.533 19.384C44.8753 20.0388 44.964 20.7969 44.782 21.513C44.782 21.513 44.731 19.647 44.398 19.505C44.1589 19.7067 43.9456 19.9371 43.763 20.191C43.763 20.191 44.2 21.113 43.927 21.591C43.927 21.591 43.763 20.347 43.62 20.341C43.3347 20.7613 43.1293 21.2304 43.014 21.725C43.0405 21.2032 43.2032 20.6974 43.486 20.258C43.1698 20.3179 42.8781 20.4691 42.647 20.693C42.647 20.693 42.732 20.11 43.623 20.06C43.7882 19.8174 43.9812 19.5949 44.198 19.397C43.7172 19.3554 43.2329 19.4108 42.774 19.56C42.9879 19.3741 43.247 19.2478 43.5253 19.194C43.8036 19.1401 44.0911 19.1604 44.359 19.253L44.974 18.746C44.4232 18.6645 43.863 18.6702 43.314 18.763C43.5868 18.5987 43.8945 18.5011 44.2122 18.4781C44.5298 18.4552 44.8484 18.5076 45.142 18.631L45.82 18.231C45.2991 18.1169 44.7657 18.0708 44.233 18.094C44.8101 17.877 45.448 17.887 46.018 18.122L46.501 17.905C46.501 17.905 45.774 17.762 45.56 17.739C45.346 17.716 45.336 17.658 45.336 17.658C45.7974 17.5823 46.2709 17.6356 46.704 17.812C47.056 17.6963 47.3967 17.5486 47.722 17.371V17.371Z" fill="#2CDD82"/>
<path opacity="0.1" d="M129.908 34.217C129.908 34.217 124.066 33.865 124.749 37.963C124.714 38.171 124.745 38.3848 124.838 38.5739C124.932 38.763 125.082 38.9178 125.269 39.016C125.269 39.016 125.28 38.709 125.869 38.816C126.079 38.8514 126.293 38.8618 126.505 38.847C126.789 38.8262 127.059 38.7139 127.274 38.527V38.527C127.274 38.527 128.919 37.847 129.557 35.16C129.557 35.16 130.031 34.574 130.018 34.424L129.031 34.845C129.219 35.2536 129.245 35.7182 129.103 36.145C129.103 36.145 129.071 34.867 128.882 34.897C128.843 34.897 128.368 35.144 128.368 35.144C128.686 35.8141 128.737 36.5797 128.511 37.286C128.511 37.286 128.677 35.758 128.187 35.234L127.492 35.64C127.869 36.3562 127.947 37.1923 127.71 37.966C127.786 37.2043 127.661 36.4359 127.346 35.738L126.717 36.23C127.059 36.8851 127.147 37.6432 126.964 38.359C126.964 38.359 126.913 36.493 126.58 36.351C126.341 36.5531 126.128 36.7834 125.945 37.037C125.945 37.037 126.382 37.959 126.111 38.437C126.111 38.437 125.945 37.193 125.804 37.187C125.519 37.6073 125.313 38.0764 125.198 38.571C125.225 38.0489 125.388 37.543 125.672 37.104C125.355 37.164 125.063 37.3152 124.831 37.539C124.831 37.539 124.917 36.956 125.807 36.906C125.973 36.6634 126.166 36.4406 126.382 36.242C125.901 36.2014 125.417 36.2575 124.958 36.407C125.172 36.2211 125.431 36.0948 125.709 36.041C125.988 35.9871 126.275 36.0074 126.543 36.1L127.158 35.593C126.607 35.5116 126.047 35.5173 125.498 35.61C125.771 35.4456 126.078 35.3479 126.396 35.3249C126.714 35.302 127.032 35.3544 127.326 35.478L128.002 35.078C127.481 34.964 126.948 34.9179 126.416 34.941C126.993 34.7241 127.631 34.734 128.201 34.969L128.685 34.752C128.685 34.752 127.956 34.609 127.743 34.586C127.53 34.563 127.518 34.505 127.518 34.505C127.979 34.4284 128.453 34.4817 128.886 34.659C129.239 34.5426 129.581 34.3947 129.908 34.217V34.217Z" fill="#2CDD82"/>
<path opacity="0.1" d="M57.561 42.692C57.561 42.692 55.015 37.414 51.775 40.015C51.5762 40.0854 51.4048 40.2168 51.2851 40.3905C51.1655 40.5641 51.1039 40.7712 51.109 40.982C51.109 40.982 51.378 40.842 51.57 41.408C51.6419 41.608 51.7369 41.799 51.853 41.977C52.0104 42.2184 52.2421 42.4019 52.513 42.5V42.5C52.513 42.5 53.907 43.6 56.565 42.851C56.8489 42.9113 57.1409 42.9241 57.429 42.889L56.58 42.233C56.3147 42.5967 55.9218 42.8467 55.48 42.933C55.48 42.933 56.58 42.283 56.462 42.133C56.437 42.102 56.001 41.805 56.001 41.805C55.571 42.4087 54.9275 42.8263 54.201 42.973C54.201 42.973 55.615 42.373 55.834 41.689L55.142 41.28C54.7003 41.9583 54.0083 42.4346 53.217 42.605C53.217 42.605 54.674 41.927 54.983 41.205L54.248 40.898C54.248 40.898 53.456 42.07 52.509 42.154C52.509 42.154 54.109 41.199 54.074 40.838C53.7813 40.7286 53.4764 40.6547 53.166 40.618C53.166 40.618 52.579 41.447 52.025 41.447C52.025 41.447 53.025 40.695 52.967 40.574C52.4595 40.5302 51.9482 40.5824 51.46 40.728C51.9282 40.4955 52.4492 40.3896 52.971 40.421C52.7639 40.1742 52.4894 39.9931 52.181 39.9C52.181 39.9 52.731 39.691 53.21 40.443C53.5023 40.4689 53.7905 40.5286 54.069 40.621C53.8706 40.1821 53.5864 39.7873 53.233 39.46C53.233 39.46 53.943 39.603 54.268 40.69L55.014 40.99C54.8194 40.4681 54.5411 39.9814 54.19 39.549C54.19 39.549 54.89 39.809 55.197 41.086L55.88 41.48C55.7269 40.9698 55.5073 40.482 55.227 40.029C55.6976 40.4268 55.9999 40.9882 56.073 41.6L56.499 41.917C56.499 41.917 56.268 41.211 56.192 41.017C56.116 40.823 56.153 40.78 56.153 40.78C56.4454 41.1449 56.6306 41.5839 56.688 42.048C56.958 42.2898 57.2503 42.5054 57.561 42.692Z" fill="#2CDD82"/>
<path opacity="0.1" d="M116.561 26.762C116.561 26.762 114.017 21.484 110.775 24.086C110.576 24.1564 110.405 24.2878 110.285 24.4615C110.166 24.6351 110.104 24.8422 110.109 25.053C110.109 25.053 110.38 24.915 110.57 25.479C110.642 25.6797 110.738 25.871 110.855 26.049C111.012 26.2897 111.243 26.4726 111.513 26.57V26.57C111.513 26.57 112.913 27.67 115.565 26.922C115.85 26.9819 116.142 26.9944 116.431 26.959L115.587 26.301C115.322 26.6648 114.929 26.9148 114.487 27.001C114.487 27.001 115.587 26.349 115.468 26.201C115.443 26.17 115.007 25.874 115.007 25.874C114.577 26.478 113.934 26.8957 113.207 27.042C113.207 27.042 114.623 26.442 114.841 25.76L114.141 25.354C113.699 26.0323 113.007 26.5086 112.216 26.679C112.216 26.679 113.673 26 113.984 25.274L113.248 24.967C113.248 24.967 112.456 26.14 111.511 26.223C111.511 26.223 113.111 25.268 113.074 24.909C112.782 24.7987 112.477 24.7248 112.167 24.689C112.167 24.689 111.58 25.516 111.025 25.516C111.025 25.516 112.03 24.764 111.969 24.643C111.461 24.5993 110.95 24.6516 110.461 24.797C110.929 24.5644 111.45 24.4586 111.972 24.49C111.766 24.243 111.491 24.0618 111.183 23.969C111.183 23.969 111.733 23.76 112.212 24.512C112.504 24.5387 112.793 24.5991 113.071 24.692C112.872 24.2524 112.587 23.8573 112.233 23.53C112.233 23.53 112.943 23.674 113.268 24.768L114.015 25.068C113.82 24.5458 113.542 24.0587 113.191 23.626C113.191 23.626 113.891 23.886 114.196 25.163L114.88 25.557C114.726 25.047 114.505 24.5592 114.225 24.106C114.696 24.5035 114.998 25.0651 115.07 25.677L115.496 25.994C115.496 25.994 115.267 25.288 115.189 25.094C115.111 24.9 115.151 24.859 115.151 24.859C115.443 25.2243 115.627 25.6631 115.685 26.127C115.957 26.365 116.25 26.5776 116.561 26.762Z" fill="#2CDD82"/>
<path opacity="0.1" d="M124.692 52.865C124.692 52.865 122.148 47.586 118.901 50.187C118.702 50.2574 118.531 50.3888 118.411 50.5625C118.292 50.7362 118.23 50.9432 118.235 51.154C118.235 51.154 118.505 51.016 118.696 51.58C118.767 51.7806 118.862 51.972 118.979 52.15C119.136 52.3907 119.367 52.5736 119.637 52.671V52.671C119.637 52.671 121.037 53.776 123.691 53.023C123.691 53.023 124.432 53.151 124.555 53.06L123.706 52.404C123.441 52.7678 123.048 53.0178 122.606 53.104C122.606 53.104 123.706 52.452 123.587 52.304C123.562 52.273 123.126 51.977 123.126 51.977C122.696 52.5814 122.053 52.9996 121.326 53.147C121.326 53.147 122.742 52.547 122.96 51.863L122.267 51.454C121.826 52.1328 121.134 52.6092 120.342 52.779C120.342 52.779 121.799 52.099 122.11 51.374L121.374 51.067C121.374 51.067 120.582 52.238 119.637 52.323C119.637 52.323 121.237 51.368 121.202 51.007C120.909 50.8967 120.604 50.8228 120.293 50.787C120.293 50.787 119.706 51.614 119.151 51.614C119.151 51.614 120.156 50.862 120.095 50.741C119.587 50.6974 119.076 50.7496 118.587 50.895C119.056 50.6625 119.577 50.5566 120.1 50.588C119.893 50.3407 119.619 50.1595 119.31 50.067C119.31 50.067 119.86 49.856 120.339 50.61C120.631 50.6359 120.92 50.6957 121.198 50.788C120.999 50.349 120.715 49.9539 120.362 49.626C120.362 49.626 121.072 49.771 121.397 50.864L122.143 51.164C121.949 50.6423 121.67 50.1559 121.319 49.7241C121.319 49.7241 122.019 49.982 122.324 51.261L123.008 51.653C122.854 51.143 122.633 50.6552 122.353 50.202C122.824 50.6001 123.127 51.1623 123.2 51.775L123.626 52.082C123.626 52.082 123.395 51.376 123.319 51.182C123.243 50.988 123.28 50.947 123.28 50.947C123.572 51.3118 123.757 51.7509 123.814 52.215C124.087 52.457 124.381 52.6745 124.692 52.865V52.865Z" fill="#2CDD82"/>
<path opacity="0.1" d="M31.046 121.551C32.9978 121.551 34.58 121.374 34.58 121.156C34.58 120.938 32.9978 120.761 31.046 120.761C29.0942 120.761 27.512 120.938 27.512 121.156C27.512 121.374 29.0942 121.551 31.046 121.551Z" fill="#2CDD82"/>
<path opacity="0.1" d="M7.87702 114.836C9.82879 114.836 11.411 114.659 11.411 114.441C11.411 114.223 9.82879 114.046 7.87702 114.046C5.92524 114.046 4.34302 114.223 4.34302 114.441C4.34302 114.659 5.92524 114.836 7.87702 114.836Z" fill="#2CDD82"/>
<path opacity="0.1" d="M48.707 126.011C50.6587 126.011 52.241 125.834 52.241 125.616C52.241 125.398 50.6587 125.221 48.707 125.221C46.7552 125.221 45.173 125.398 45.173 125.616C45.173 125.834 46.7552 126.011 48.707 126.011Z" fill="#2CDD82"/>
<path opacity="0.1" d="M139.21 116.296C141.162 116.296 142.744 116.119 142.744 115.901C142.744 115.683 141.162 115.506 139.21 115.506C137.258 115.506 135.676 115.683 135.676 115.901C135.676 116.119 137.258 116.296 139.21 116.296Z" fill="#2CDD82"/>
<path opacity="0.1" d="M109.8 114.379C111.752 114.379 113.334 114.202 113.334 113.984C113.334 113.766 111.752 113.589 109.8 113.589C107.848 113.589 106.266 113.766 106.266 113.984C106.266 114.202 107.848 114.379 109.8 114.379Z" fill="#2CDD82"/>
<path opacity="0.1" d="M90.774 123.729C93.0825 123.729 94.954 123.408 94.954 123.011C94.954 122.614 93.0825 122.293 90.774 122.293C88.4654 122.293 86.594 122.614 86.594 123.011C86.594 123.408 88.4654 123.729 90.774 123.729Z" fill="#2CDD82"/>
<path d="M92.639 115.795C92.639 115.795 86.819 118.802 89.826 122.344C89.9115 122.563 90.0637 122.75 90.261 122.878C90.4583 123.007 90.6909 123.07 90.926 123.059C90.926 123.059 90.763 122.759 91.387 122.522C91.6092 122.436 91.8204 122.324 92.016 122.188C92.2805 122.005 92.4782 121.741 92.579 121.436V121.436C92.579 121.436 93.769 119.843 92.846 116.896C92.846 116.896 92.966 116.063 92.861 115.927L92.154 116.897C92.57 117.182 92.8615 117.615 92.969 118.108C92.969 118.108 92.2 116.898 92.047 117.032C92.013 117.06 91.697 117.562 91.697 117.562C92.3853 118.024 92.8717 118.73 93.057 119.538C93.057 119.538 92.344 117.975 91.573 117.752L91.132 118.539C91.9049 119.013 92.4581 119.774 92.67 120.655C92.67 120.655 91.87 119.048 91.045 118.724L90.721 119.556C90.721 119.556 92.055 120.405 92.178 121.456C92.178 121.456 91.062 119.693 90.661 119.748C90.5466 120.078 90.4734 120.422 90.443 120.77C90.443 120.77 91.385 121.4 91.402 122.02C91.402 122.02 90.532 120.92 90.402 120.993C90.3688 121.561 90.4407 122.131 90.614 122.673C90.3395 122.157 90.2064 121.577 90.228 120.993C89.958 121.232 89.764 121.545 89.67 121.893C89.67 121.893 89.419 121.286 90.245 120.726C90.2655 120.398 90.3239 120.074 90.419 119.76C89.9343 119.996 89.5015 120.327 89.146 120.732C89.146 120.732 89.286 119.932 90.497 119.538L90.804 118.695C90.2267 118.929 89.6913 119.255 89.219 119.661C89.219 119.661 89.488 118.869 90.899 118.489L91.317 117.72C90.7534 117.908 90.2158 118.166 89.717 118.489C90.1472 117.95 90.7658 117.595 91.448 117.494L91.788 117.01C91.788 117.01 91.007 117.288 90.788 117.388C90.569 117.488 90.527 117.439 90.527 117.439C90.9259 117.101 91.4105 116.881 91.927 116.802C92.1942 116.488 92.4325 116.151 92.639 115.795V115.795Z" fill="#2CDD82"/>
<path d="M109.914 59.001C108.909 56.269 103.374 56.012 100.973 56.709C98.589 57.2777 96.1775 57.724 93.748 58.046L93.623 57.928C93.872 57.854 93.878 57.673 93.847 57.404C93.829 57.0494 93.834 56.694 93.862 56.34C94.2467 56.43 94.6468 56.4317 95.0323 56.3451C95.4178 56.2586 95.7787 56.0859 96.088 55.84V55.84C97.472 55.225 97.1 52.593 97.364 51.874C97.6355 50.1227 97.8048 48.357 97.871 46.586H97.891L97.902 46.056C97.916 45.827 97.922 45.693 97.922 45.693C97.9557 44.1371 98.0893 42.5849 98.322 41.046C98.5805 39.4175 98.7398 37.7748 98.799 36.127V36.052L98.779 35.717C98.793 35.473 98.799 35.2 98.797 34.917C98.797 33.603 98.66 31.947 98.643 31.679V31.539C98.654 30.978 98.583 28.168 96.192 27.105C95.311 26.711 94.252 26.243 93.226 25.786C92.7971 23.5231 92.5245 21.2334 92.41 18.933C92.41 18.587 92.441 18.241 92.475 17.897C92.475 17.997 92.464 18.097 92.463 18.204V18.874C92.554 15.998 93.64 13.106 93.539 10.291C93.53 10.566 93.51 10.843 93.484 11.12C93.5355 10.1677 93.4342 9.21331 93.184 8.29302C93.1161 7.9586 92.9475 7.65293 92.701 7.41702C92.4498 7.24238 92.1616 7.12808 91.859 7.08302C91.1316 6.89683 90.3926 6.75919 89.647 6.67102C89.5331 6.32404 89.3643 5.99756 89.147 5.70402C87.588 3.56402 85.279 1.55302 82.547 1.09202C81.8724 0.931104 81.1692 0.93249 80.4953 1.09607C79.8213 1.25965 79.1957 1.58076 78.67 2.03302C78.5725 2.11911 78.481 2.21165 78.396 2.31002C77.896 2.91002 77.68 3.69402 77.166 4.29002C77.132 4.33002 77.094 4.36702 77.057 4.40502C76.052 5.30502 74.485 5.49202 73.367 6.29902C73.17 6.44386 72.9854 6.60474 72.815 6.78002C72.3647 7.22627 71.961 7.71712 71.61 8.24502C71.0581 8.91474 70.6561 9.69491 70.431 10.533C70.11 12.224 71.261 13.828 71.475 15.533C71.952 19.341 67.738 22.72 68.536 26.477C68.7489 27.4002 69.2191 28.2441 69.892 28.911C68.249 30.399 66.85 31.843 66.85 31.843V31.929H66.59L66.616 32.236H66.59L66.733 33.904L66.59 36.333V36.562H66.599C66.6545 38.1587 66.8085 39.7503 67.06 41.328C67.2928 42.8668 67.4264 44.419 67.46 45.975C67.46 45.975 67.752 51.437 68.02 52.16C68.288 52.883 67.908 55.507 69.296 56.126C69.702 56.4375 70.1827 56.6368 70.69 56.704C70.619 57.279 70.664 57.696 70.89 57.826C70.9881 57.8836 71.0992 57.9153 71.213 57.918C71.1186 58.0576 71.0348 58.204 70.962 58.356C70.411 58.2984 69.8696 58.1707 69.351 57.976C67.86 57.361 62.911 55.976 61.474 56.951C60.037 57.926 56.574 58.807 58.174 62.724C59.774 66.641 60.515 66.74 60.515 66.74C61.0068 67.097 61.4383 67.5305 61.793 68.024C62.273 68.745 66.742 70.395 67.859 70.395C68.334 70.3878 68.809 70.4115 69.281 70.466C69.281 70.466 68.068 71.53 68.23 72.148C68.2085 74.0084 68.0853 75.8661 67.861 77.713C67.861 77.713 69.091 78.952 69.617 77.327L69.635 77.352C69.735 77.486 70.265 78.09 71.266 77.327C71.6754 77.0163 72.1102 76.7407 72.566 76.503L77.412 75.817C77.9171 75.7854 78.4235 75.7817 78.929 75.806C79.6616 75.7966 80.3683 75.5337 80.929 75.062C81.929 75.443 83.061 75.862 83.598 76.012C84.686 76.319 89.689 77.662 90.859 77.242C91.1021 77.1453 91.3182 76.9912 91.489 76.793L92.605 76.828L92.082 76.928C92.082 76.928 93.1 76.945 94.482 76.963L94.424 76.997L96.16 76.982C98.7 77.005 101.553 77.013 101.928 76.928C103.439 76.8432 104.955 76.8432 106.466 76.928H106.717C107.156 76.8585 107.571 76.6839 107.928 76.419C108.285 76.1542 108.572 75.807 108.765 75.4071C108.959 75.0071 109.053 74.5663 109.039 74.1223C109.025 73.6783 108.904 73.2442 108.686 72.857C107.622 70.244 104.352 69.484 102.901 69.275C103.31 69.194 103.662 69.13 103.896 69.094C105.033 68.867 106.105 68.3921 107.037 67.703C107.197 67.388 108.846 66.473 109.272 65.952C110.333 63.7925 110.561 61.3182 109.914 59.001V59.001ZM82.142 66.646L81.978 66.7L81.867 66.737L81.655 66.946C81.486 66.832 81.304 66.712 81.115 66.589C81.449 66.609 81.791 66.629 82.142 66.646Z" fill="url(#paint0_linear)"/>
<path d="M91.944 50.437C91.944 50.437 94.296 56.586 95.634 55.971C96.972 55.356 96.609 52.743 96.864 52.026C97.119 51.309 97.402 45.877 97.402 45.877C97.4336 44.3302 97.5619 42.7869 97.786 41.256C98.034 39.6373 98.1879 38.0056 98.247 36.369V36.294L97.993 31.836L96.557 31.478L93.227 32.708L92.766 35.341L92.586 36.37L92.509 36.808L91.944 50.437Z" fill="#BE6F72"/>
<path opacity="0.1" d="M92.719 49.407C93.6182 50.1764 94.5975 50.8469 95.64 51.407C96.316 51.568 96.731 53.001 96.731 53.001" fill="black"/>
<path d="M73.546 50.706C73.546 50.706 71.194 56.855 69.856 56.24C68.518 55.625 68.881 53.012 68.626 52.295C68.371 51.578 68.088 46.146 68.088 46.146C68.0564 44.5992 67.9281 43.0558 67.704 41.525C67.456 39.9063 67.3021 38.2745 67.243 36.638V36.563L67.498 32.105L68.934 31.747L72.264 32.977L72.725 35.61L72.905 36.638L72.9821 37.076L73.546 50.706Z" fill="#BE6F72"/>
<path d="M88.866 17.797H83.616V25.98H88.866V17.797Z" fill="#3E373A"/>
<path opacity="0.1" d="M88.866 17.797H83.616V25.98H88.866V17.797Z" fill="black"/>
<path d="M72.627 56.833C72.627 56.833 70.8329 58.805 71.4989 59.164C72.1649 59.523 76.471 66.2361 76.471 66.2361C76.471 66.2361 90.615 67.9781 93.282 65.3641C95.949 62.7501 95.896 58.082 95.896 58.082C95.896 58.082 93.753 58.543 93.519 58.293C93.285 58.043 92.002 56.8341 92.002 56.8341C92.002 56.8341 73.854 55.733 72.627 56.833Z" fill="#4B4B5B"/>
<path opacity="0.02" d="M72.627 56.833C72.627 56.833 70.8329 58.805 71.4989 59.164C72.1649 59.523 76.471 66.2361 76.471 66.2361C76.471 66.2361 90.615 67.9781 93.282 65.3641C95.949 62.7501 95.896 58.082 95.896 58.082C95.896 58.082 93.753 58.543 93.519 58.293C93.285 58.043 92.002 56.8341 92.002 56.8341C92.002 56.8341 73.854 55.733 72.627 56.833Z" fill="black"/>
<path d="M98.089 31.899L93.477 35.589L92.083 35.689L91.571 35.726L82.971 36.356L74.054 35.704L72.727 35.604L71.0359 35.481L67.5 32.099C68.9851 30.519 70.554 29.0198 72.2 27.608C72.8821 26.9957 73.6482 26.4839 74.475 26.088L74.575 26.053C74.9493 25.907 75.2836 25.6739 75.55 25.373C77.281 23.588 78.881 19.184 78.881 19.184C78.881 19.184 86.517 15.239 85.595 20.414C84.673 25.589 89.028 24.314 89.028 24.314L90.464 24.969L91.031 25.229L92.478 25.892L95.742 27.392C98.301 28.568 98.089 31.899 98.089 31.899Z" fill="#BE6F72"/>
<path opacity="0.1" d="M82.613 23.402C86.4055 23.402 89.48 20.3276 89.48 16.535C89.48 12.7425 86.4055 9.66803 82.613 9.66803C78.8204 9.66803 75.746 12.7425 75.746 16.535C75.746 20.3276 78.8204 23.402 82.613 23.402Z" fill="black"/>
<path opacity="0.1" d="M98.099 36.7881H67.246V36.713L67.501 32.2551C68.9861 30.675 70.555 29.1758 72.201 27.7641L91.571 26.9951L92.4709 26.045L95.735 27.545C98.298 28.723 98.092 32.054 98.092 32.054C98.092 32.054 98.439 35.9151 98.099 36.7881Z" fill="black"/>
<path d="M98.099 36.635H67.246V36.56L67.501 32.102C68.9861 30.5219 70.555 29.0228 72.201 27.611L91.571 26.842L92.4709 25.892L95.735 27.392C98.298 28.57 98.092 31.901 98.092 31.901C98.092 31.901 98.439 35.762 98.099 36.635Z" fill="#E7C7CA"/>
<path opacity="0.1" d="M77.668 24.1361C77.668 24.1361 82.535 30.336 89.018 24.008C95.501 17.68 89.736 38.125 89.736 38.125L75.746 39.7851L77.668 24.1361Z" fill="black"/>
<path d="M77.668 24.443C77.668 24.443 82.535 30.643 89.018 24.315C95.501 17.987 89.736 38.432 89.736 38.432L75.746 40.092L77.668 24.443Z" fill="#E7C7CA"/>
<path opacity="0.1" d="M91.022 25.528L91.537 33.382L92.089 35.995L92.51 37.995C92.51 37.995 93.586 53.368 93.279 54.137C92.972 54.906 93.433 55.521 93.497 55.93C93.561 56.339 93.432 57.366 93.483 57.83C93.534 58.294 93.483 58.496 92.305 58.33C91.127 58.164 89.486 57.88 89.486 57.88C89.486 57.88 85.335 58.187 83.901 57.68C82.545 57.3321 81.1499 57.1593 79.75 57.166C79.75 57.166 75.65 57.266 74.319 57.115C72.988 56.964 72.268 58.755 71.398 58.242C70.528 57.729 72.422 52.76 73.037 51.324C73.652 49.888 72.218 46.251 72.218 46.251L74.063 36.017L74.473 33.697V26.404L74.573 26.369C74.9474 26.223 75.2817 25.9899 75.548 25.689L76.009 33.028L90.46 33.541V25.281" fill="black"/>
<path d="M91.022 25.221L91.537 33.075L92.089 35.688L92.51 37.688C92.51 37.688 93.586 53.061 93.279 53.83C92.972 54.599 93.433 55.214 93.497 55.623C93.561 56.032 93.432 57.059 93.483 57.523C93.534 57.987 93.483 58.189 92.305 58.023C91.127 57.857 89.486 57.573 89.486 57.573C89.486 57.573 85.335 57.88 83.901 57.373C82.5449 57.0254 81.1499 56.853 79.75 56.86C79.75 56.86 75.65 56.96 74.319 56.809C72.988 56.658 72.268 58.449 71.398 57.936C70.528 57.423 72.422 52.454 73.037 51.018C73.652 49.582 72.218 45.945 72.218 45.945L74.063 35.711L74.473 33.391V26.098L74.573 26.063C74.9474 25.917 75.2817 25.6839 75.548 25.383L76.009 32.722L90.46 33.236V24.976" fill="#E7C7CA"/>
<path opacity="0.1" d="M92.683 8.83004C92.6185 8.50092 92.4581 8.19822 92.222 7.96004C91.9812 7.78716 91.703 7.67342 91.41 7.62804C90.7087 7.44363 89.9958 7.30699 89.276 7.21904C89.1733 6.87761 89.0177 6.55436 88.815 6.26104C87.308 4.13304 85.079 2.12705 82.457 1.67405C81.7796 1.50247 81.0694 1.50977 80.3957 1.69524C79.722 1.8807 79.1081 2.23797 78.614 2.73204C78.131 3.32704 77.924 4.11604 77.436 4.70004C76.497 5.83504 74.801 5.97404 73.617 6.85204C73.0091 7.35519 72.4895 7.95648 72.08 8.63104C71.5458 9.30086 71.1588 10.0757 70.944 10.905C70.636 12.582 71.744 14.181 71.949 15.874C72.41 19.66 68.349 23.02 69.119 26.755C69.566 28.933 71.579 30.468 73.66 31.246C74.4324 31.4092 75.1155 31.8563 75.574 32.499C75.728 32.806 75.754 33.162 75.898 33.472C76.384 34.508 77.981 34.548 78.839 33.793C79.6274 32.9471 80.0667 31.8344 80.069 30.678C80.481 25.703 78.489 20.788 78.721 15.801C78.79 14.293 79.214 12.582 80.566 11.901C82.385 10.979 84.572 12.516 86.574 12.222C87.5212 14.5267 87.7223 17.0702 87.149 19.495C86.7102 20.7877 86.4056 22.122 86.24 23.477C86.18 25.56 87.304 27.463 88.275 29.305C88.4837 29.6495 88.6233 30.0312 88.686 30.429C88.7012 30.8325 88.6261 31.2343 88.466 31.605C87.917 33.082 86.966 34.454 86.866 36.026C86.8343 36.2097 86.8756 36.3984 86.981 36.552C87.0902 36.6551 87.2313 36.7179 87.381 36.73C89.041 37.014 90.481 35.543 91.287 34.066C92.1902 32.4342 92.7164 30.6208 92.827 28.759C92.995 25.629 91.872 22.55 91.942 19.417C92.016 15.856 93.626 12.269 92.683 8.83004Z" fill="black"/>
<path d="M92.836 8.67604C92.7715 8.34691 92.6111 8.04422 92.375 7.80604C92.1342 7.63315 91.856 7.51942 91.563 7.47404C90.8617 7.28962 90.1488 7.15298 89.429 7.06504C89.3262 6.72363 89.1707 6.40039 88.968 6.10704C87.461 3.97904 85.232 1.97304 82.609 1.52004C81.9317 1.34836 81.2214 1.35562 80.5477 1.54109C79.874 1.72656 79.26 2.08388 78.766 2.57804C78.283 3.17304 78.076 3.96204 77.588 4.54604C76.649 5.68104 74.953 5.82004 73.769 6.69804C73.161 7.20117 72.6415 7.80247 72.232 8.47704C71.6979 9.14685 71.3108 9.92168 71.096 10.751C70.788 12.428 71.896 14.027 72.101 15.72C72.562 19.506 68.501 22.866 69.271 26.601C69.718 28.779 71.731 30.314 73.812 31.092C74.5845 31.2552 75.2675 31.7023 75.726 32.345C75.88 32.652 75.906 33.008 76.05 33.318C76.536 34.354 78.133 34.394 78.991 33.639C79.7793 32.7931 80.2187 31.6804 80.221 30.524C80.633 25.549 78.641 20.634 78.873 15.647C78.942 14.139 79.366 12.428 80.718 11.747C82.537 10.825 84.724 12.362 86.726 12.068C87.6731 14.3727 87.8742 16.9162 87.301 19.341C86.8621 20.6336 86.5575 21.968 86.392 23.323C86.332 25.406 87.456 27.309 88.427 29.151C88.6354 29.4955 88.7746 29.8773 88.837 30.275C88.8523 30.6785 88.7772 31.0804 88.617 31.451C88.068 32.928 87.117 34.3 87.017 35.872C86.9855 36.0557 87.0267 36.2443 87.132 36.398C87.2413 36.501 87.3823 36.5638 87.532 36.576C89.192 36.86 90.632 35.389 91.438 33.912C92.3412 32.2802 92.8674 30.4668 92.978 28.605C93.145 25.475 92.023 22.396 92.093 19.263C92.169 15.702 93.779 12.115 92.836 8.67604Z" fill="#3E373A"/>
<path d="M89.441 76.749L95.541 76.949L94.666 72.426L89.994 72.87L89.441 76.749Z" fill="#C3C7D9"/>
<path d="M108.34 66.029C107.929 66.541 106.34 67.463 106.188 67.771C105.295 68.4507 104.262 68.9234 103.164 69.155C101.593 69.4014 100.049 69.7962 98.552 70.334C96.6608 70.9718 94.7291 71.4829 92.77 71.864C92.1924 72.0006 91.6079 72.1058 91.019 72.179C90.097 72.23 80.003 68.797 80.003 68.797L81.949 66.797L82.057 66.76C82.608 66.574 85.15 65.715 86.557 65.306C87.8494 64.7609 89.0177 63.9591 89.991 62.949C89.991 62.949 92.706 62.027 93.066 61.924C93.426 61.821 92.144 58.337 92.144 58.337C92.144 58.337 98.037 57.519 100.344 56.826C102.651 56.133 107.98 56.389 108.953 59.106C109.582 61.4128 109.364 63.8686 108.34 66.029V66.029Z" fill="#4B4B5B"/>
<path d="M81.485 74.688C80.8683 75.3459 80.0272 75.7485 79.128 75.816C77.949 75.716 73.828 76.123 73.828 76.123C73.081 76.4198 72.3813 76.8241 71.751 77.323C70.787 78.082 70.275 77.477 70.18 77.348L70.163 77.323C69.65 78.939 68.472 77.707 68.472 77.707C68.6887 75.87 68.8072 74.0227 68.827 72.173C68.67 71.558 69.84 70.502 69.84 70.502L71.224 70.15L74.729 69.25L79.752 70.992L81.485 74.688Z" fill="#E7C7CA"/>
<path opacity="0.1" d="M71.216 70.155L70.178 77.355L70.161 77.33C69.648 78.946 68.47 77.714 68.47 77.714C68.6867 75.877 68.8052 74.0297 68.825 72.18C68.668 71.565 69.838 70.509 69.838 70.509L71.216 70.155Z" fill="black"/>
<path opacity="0.1" d="M78.469 49.68C80.1195 50.2034 81.8915 50.2034 83.542 49.68Z" fill="black"/>
<path opacity="0.1" d="M87.737 51.424C88.0476 51.5788 88.3899 51.6594 88.737 51.6594C89.0841 51.6594 89.4264 51.5788 89.737 51.424" fill="black"/>
<path opacity="0.1" d="M87.737 52.7581C87.737 52.7581 89.637 53.0121 89.992 52.5001Z" fill="black"/>
<path opacity="0.1" d="M87.123 55.625C87.123 55.625 90.683 55.164 91.568 54.549Z" fill="black"/>
<path opacity="0.1" d="M76.258 54.549C77.3275 55.157 78.5168 55.5242 79.743 55.625Z" fill="black"/>
<path opacity="0.1" d="M92.766 71.8621C92.1884 71.9986 91.6039 72.1037 91.015 72.177C90.093 72.228 79.998 68.795 79.998 68.795L81.944 66.795L82.052 66.7581C82.359 66.9751 82.612 67.158 82.792 67.302C83.639 67.969 84.457 67.1021 84.764 67.1021C85.8078 67.7606 86.8012 68.496 87.736 69.302C87.736 69.302 90.196 69.8661 90.606 70.3781C91.016 70.8901 92.451 70.788 92.706 71.147C92.7891 71.3758 92.8098 71.6226 92.766 71.8621Z" fill="black"/>
<path d="M73.826 58.546C72.5016 58.627 71.1734 58.4709 69.904 58.085C68.47 57.485 63.704 56.085 62.32 57.066C60.936 58.047 57.605 58.911 59.142 62.806C60.679 66.701 61.397 66.806 61.397 66.806C61.8727 67.1627 62.288 67.5935 62.627 68.082C63.088 68.8 67.393 70.439 68.469 70.439C70.5029 70.3943 72.4912 71.0451 74.105 72.284C75.6079 73.363 77.3474 74.0662 79.178 74.335C79.178 74.335 82.56 75.719 83.613 76.026C84.666 76.333 89.478 77.665 90.606 77.256C91.734 76.847 92.451 74.283 92.451 74.283C92.451 74.283 92.963 71.977 92.706 71.619C92.449 71.261 91.015 71.362 90.606 70.85C90.197 70.338 87.736 69.774 87.736 69.774C86.8034 68.9679 85.812 68.2325 84.77 67.574C84.462 67.574 83.645 68.444 82.798 67.774C81.1107 66.5243 79.338 65.3942 77.493 64.392C75.548 63.362 73.826 58.546 73.826 58.546Z" fill="#4B4B5B"/>
<path opacity="0.1" d="M68.825 60.033C69.268 59.9426 69.7258 59.9556 70.1629 60.0711C70.6 60.1867 71.0045 60.4015 71.345 60.699C73.0607 61.8502 74.8544 62.8806 76.713 63.783" fill="black"/>
<path opacity="0.1" d="M99.576 59.968C99.576 59.968 94.092 60.798 93.068 61.925Z" fill="black"/>
<path d="M105.878 76.944H105.637C104.181 76.8669 102.722 76.8669 101.266 76.944C100.6 77.098 91.785 76.944 91.785 76.944L93.508 76.586C93.508 76.586 92.869 74.345 93.274 74.159C93.274 74.159 90.968 72.6401 92.707 71.6151C93.8053 71.0022 95.0834 70.7924 96.32 71.022L100.685 69.543L101.523 69.259C101.523 69.259 106.443 69.516 107.774 72.898C109.105 76.28 105.878 76.944 105.878 76.944Z" fill="#E7C7CA"/>
<path opacity="0.1" d="M105.875 76.944H105.634C107.065 75.763 110.303 72.169 100.682 69.549L101.52 69.265C101.52 69.265 106.439 69.522 107.771 72.904C109.103 76.286 105.875 76.944 105.875 76.944Z" fill="black"/>
<path d="M96.834 72.959C96.9826 72.959 97.103 72.8386 97.103 72.69C97.103 72.5415 96.9826 72.421 96.834 72.421C96.6854 72.421 96.565 72.5415 96.565 72.69C96.565 72.8386 96.6854 72.959 96.834 72.959Z" fill="#4B4B5B"/>
<path d="M95.27 73.403C95.4185 73.403 95.539 73.2826 95.539 73.134C95.539 72.9854 95.4185 72.865 95.27 72.865C95.1214 72.865 95.001 72.9854 95.001 73.134C95.001 73.2826 95.1214 73.403 95.27 73.403Z" fill="#4B4B5B"/>
<g opacity="0.1">
<path opacity="0.1" d="M87.653 16.282C87.7129 14.5911 87.4122 12.9068 86.771 11.341C84.771 11.641 82.583 10.097 80.763 11.02C79.416 11.703 78.993 13.414 78.918 14.92C78.9 15.32 78.896 15.72 78.904 16.115C78.904 15.974 78.904 15.831 78.918 15.689C78.989 14.181 79.411 12.47 80.763 11.789C82.583 10.867 84.769 12.404 86.771 12.11C87.3139 13.4362 87.6128 14.8495 87.653 16.282V16.282Z" fill="black"/>
<path opacity="0.1" d="M72.166 16C72.1923 15.6651 72.1856 15.3285 72.146 14.995C71.983 13.642 71.246 12.349 71.11 11.03C70.938 12.621 71.951 14.149 72.146 15.763C72.1624 15.8408 72.1692 15.9204 72.166 16V16Z" fill="black"/>
<path opacity="0.1" d="M80.266 29.796C80.2699 30.9538 79.8297 32.069 79.036 32.912C78.17 33.668 76.576 33.627 76.095 32.591C75.941 32.283 75.9181 31.925 75.7691 31.618C75.4281 30.918 74.5881 30.64 73.8551 30.365C71.7721 29.586 69.762 28.059 69.315 25.874C69.2749 25.676 69.2475 25.4755 69.233 25.274C69.1954 25.7316 69.223 26.1922 69.315 26.642C69.762 28.82 71.7751 30.353 73.8551 31.133C74.5881 31.408 75.4281 31.682 75.7691 32.386C75.9231 32.693 75.949 33.049 76.095 33.359C76.579 34.395 78.177 34.435 79.036 33.68C79.8244 32.8336 80.2637 31.7206 80.266 30.564C80.3128 29.9652 80.3288 29.3644 80.314 28.764C80.314 29.109 80.295 29.453 80.266 29.796Z" fill="black"/>
<path opacity="0.1" d="M92.141 18.535V19.201C92.227 16.342 93.275 13.467 93.173 10.667C93.093 13.257 92.199 15.903 92.141 18.535Z" fill="black"/>
<path opacity="0.1" d="M88.846 30.102C88.8837 29.9195 88.8955 29.7327 88.881 29.547C88.8193 29.1491 88.68 28.7672 88.471 28.423C87.582 26.732 86.571 25.001 86.449 23.123C86.449 23.203 86.438 23.277 86.437 23.363C86.375 25.445 87.499 27.349 88.471 29.191C88.6361 29.4762 88.7622 29.7823 88.846 30.101V30.102Z" fill="black"/>
<path opacity="0.1" d="M93.024 27.877C92.9094 29.7395 92.3795 31.5528 91.473 33.184C90.661 34.661 89.227 36.133 87.565 35.848C87.4149 35.8358 87.2736 35.7722 87.165 35.668C87.134 35.6326 87.1096 35.592 87.093 35.548C87.075 35.668 87.059 35.789 87.05 35.912C87.0182 36.095 87.0595 36.2831 87.165 36.436C87.2736 36.5402 87.4149 36.6038 87.565 36.616C89.227 36.9 90.665 35.429 91.473 33.952C92.3795 32.3208 92.9094 30.5075 93.024 28.645C93.042 28.285 93.044 27.927 93.033 27.569C93.031 27.673 93.031 27.774 93.024 27.877Z" fill="black"/>
</g>
<path opacity="0.1" d="M93.275 74.158C94.417 74.6038 95.676 74.6508 96.848 74.2914C98.02 73.932 99.0363 73.1873 99.7321 72.178" stroke="black" stroke-miterlimit="10"/>
<path opacity="0.1" d="M94.041 77.011C95.1447 76.3996 96.3836 76.0731 97.6454 76.0612C98.9071 76.0494 100.152 76.3524 101.267 76.943" stroke="black" stroke-miterlimit="10"/>
<path opacity="0.1" d="M72.77 76.542C72.77 76.542 74.104 73.532 77.67 75.827" stroke="black" stroke-miterlimit="10"/>
<path opacity="0.1" d="M68.444 32.027L71.165 29.567C71.165 29.567 81.716 28.875 82.152 32.462C82.152 32.462 85.892 28.21 93.759 29.157L97.087 31.807L87.887 35.844L78.947 38.944L72.362 35.997L68.444 32.027Z" fill="black"/>
<path d="M68.444 32.181L71.165 29.721C71.165 29.721 81.716 29.0291 82.152 32.6161C82.152 32.6161 85.892 28.364 93.759 29.311L97.087 31.9611L87.887 35.998L78.947 39.098L72.362 36.151L68.444 32.181Z" fill="#D5D6DB"/>
<path opacity="0.1" d="M67.24 32.488L68.44 46.888L81.2 47.529L80.647 33.19L80.636 32.949L67.24 32.488Z" fill="black"/>
<path d="M67.24 32.181L68.44 46.581L81.2 47.222L80.647 32.883L80.636 32.642L67.24 32.181Z" fill="#2CDD82"/>
<path opacity="0.1" d="M97.672 32.181L84.509 34.151V48.616L97.372 46.757L97.672 32.181Z" fill="black"/>
<path d="M97.672 31.873L84.509 33.843V48.308L97.372 46.4491L97.672 31.873Z" fill="#2CDD82"/>
<path opacity="0.3" d="M94.568 35.403L87.458 36.193L87.613 38.616L94.563 37.857L94.568 35.403Z" fill="white"/>
<path d="M69.136 54.292L69.86 56.24C70.1679 56.498 70.5352 56.6752 70.9287 56.7557C71.3222 56.8361 71.7295 56.8174 72.114 56.701C73.0644 56.4392 73.9772 56.0564 74.83 55.562C75.3681 54.7261 75.7824 53.8167 76.06 52.862C76.06 52.862 76.778 50.402 77.494 49.787C78.21 49.172 80.107 40.7 77.494 41.528C74.881 42.356 72.882 50.043 72.882 50.043C72.5934 50.378 72.1928 50.5966 71.755 50.658C71.089 50.71 69.755 50.558 69.5 51.119C69.245 51.68 68.367 53.165 69.136 54.292Z" fill="#BE6F72"/>
<path opacity="0.1" d="M84.509 34.153C83.8351 34.3049 83.1351 34.2969 82.4649 34.1299C81.7947 33.9629 81.1728 33.6413 80.649 33.191L81.204 47.528C81.6333 47.9527 82.155 48.2723 82.7284 48.4618C83.3018 48.6512 83.9112 48.7054 84.509 48.62V34.153Z" fill="black"/>
<path d="M84.509 33.845C83.8351 33.9969 83.1351 33.989 82.4649 33.8219C81.7947 33.6549 81.1728 33.3334 80.649 32.8831L81.204 47.2201C81.6333 47.6448 82.155 47.9643 82.7284 48.1538C83.3018 48.3432 83.9112 48.3974 84.509 48.312V33.845Z" fill="#2CDD82"/>
<path opacity="0.1" d="M84.509 33.845C83.8351 33.9969 83.1351 33.989 82.4649 33.8219C81.7947 33.6549 81.1728 33.3334 80.649 32.8831L81.204 47.2201C81.6333 47.6448 82.155 47.9643 82.7284 48.1538C83.3018 48.3432 83.9112 48.3974 84.509 48.312V33.845Z" fill="black"/>
<path opacity="0.1" d="M84.817 32.226C84.817 32.226 90.172 30.589 91.567 30.819Z" fill="black"/>
<path opacity="0.1" d="M78.827 31.515C78.827 31.515 73.637 30.285 72.77 30.634Z" fill="black"/>
<path opacity="0.1" d="M88.193 32.434C88.193 32.434 91.773 31.121 93.068 31.745Z" fill="black"/>
<path opacity="0.1" d="M86.389 65.365C86.9437 64.9469 87.5343 64.5788 88.154 64.265C89.0528 63.7784 89.925 63.2443 90.767 62.665" fill="black"/>
<path opacity="0.1" d="M72.77 49.68C71.8705 50.449 70.8913 51.1195 69.849 51.68C69.174 51.841 68.758 53.274 68.758 53.274" fill="black"/>
<path d="M96.351 54.018L95.635 55.97C95.3269 56.228 94.9594 56.4052 94.5658 56.4856C94.1721 56.5661 93.7646 56.5473 93.38 56.431C92.4291 56.1684 91.516 55.7846 90.663 55.289C90.1241 54.4535 89.7098 53.5439 89.433 52.589C89.433 52.589 88.717 50.129 87.999 49.514C87.281 48.899 85.385 40.427 87.999 41.255C90.613 42.083 92.611 49.77 92.611 49.77C92.8997 50.1049 93.3001 50.3235 93.738 50.385C94.404 50.437 95.738 50.285 95.993 50.846C96.248 51.407 97.12 52.896 96.351 54.018Z" fill="#BE6F72"/>
<path opacity="0.1" d="M95.095 50.427C95.095 50.427 96.563 51.371 96.557 52.499Z" fill="black"/>
<path d="M82.638 23.065C86.4305 23.065 89.505 19.9905 89.505 16.198C89.505 12.4055 86.4305 9.33099 82.638 9.33099C78.8455 9.33099 75.771 12.4055 75.771 16.198C75.771 19.9905 78.8455 23.065 82.638 23.065Z" fill="#BE6F72"/>
<path d="M78.326 14.355C79.1378 14.1286 79.9276 13.8297 80.686 13.462C82.5298 12.9894 84.4764 13.118 86.242 13.829C86.9213 14.0888 87.6361 14.2442 88.362 14.29C88.7257 14.3073 89.0878 14.2317 89.4142 14.0704C89.7407 13.9091 90.0207 13.6674 90.228 13.368C90.381 13.0697 90.4598 12.7388 90.4577 12.4036C90.4556 12.0683 90.3727 11.7384 90.216 11.442C89.8972 10.853 89.472 10.3282 88.962 9.89402C87.362 8.38402 85.38 6.97302 83.186 7.12702C82.3054 7.22619 81.4475 7.47191 80.6479 7.85402C79.626 8.29435 78.6312 8.79524 77.6689 9.35402C76.9289 9.78302 75.56 10.354 75.134 11.14C74.165 12.91 76.82 14.592 78.326 14.355Z" fill="#3E373A"/>
<path opacity="0.1" d="M90.228 12.723C90.0207 13.0224 89.7407 13.2641 89.4143 13.4254C89.0878 13.5867 88.7257 13.6623 88.3619 13.645C87.6362 13.6022 86.9211 13.4498 86.241 13.193C84.4755 12.4813 82.5287 12.3527 80.6849 12.826C79.9281 13.197 79.138 13.4957 78.325 13.718C77.11 13.909 75.155 12.851 74.943 11.506C74.705 13.06 76.972 14.392 78.325 14.179C79.1366 13.9526 79.9264 13.654 80.6849 13.287C82.5287 12.8137 84.4755 12.9423 86.241 13.654C86.9198 13.9153 87.6356 14.0678 88.3619 14.106C88.7254 14.1218 89.087 14.0455 89.4132 13.8844C89.7394 13.7232 90.0196 13.4823 90.228 13.184C90.42 12.8427 90.4955 12.4481 90.443 12.06C90.4192 12.2938 90.3458 12.5198 90.228 12.723V12.723Z" fill="black"/>
<path d="M145.958 96.039C145.958 96.039 146.869 97.23 145.537 99.031C144.205 100.832 143.106 102.35 143.549 103.472C143.549 103.472 145.56 100.13 147.196 100.082C148.832 100.034 147.755 98.048 145.958 96.039Z" fill="#2CDD82"/>
<path opacity="0.1" d="M145.959 96.039C146.038 96.154 146.101 96.2796 146.145 96.412C147.745 98.288 148.592 100.039 147.057 100.082C145.627 100.123 143.913 102.682 143.502 103.324C143.515 103.376 143.531 103.428 143.55 103.478C143.55 103.478 145.561 100.136 147.197 100.088C148.833 100.04 147.756 98.048 145.959 96.039Z" fill="black"/>
<path d="M147.65 97.558C147.65 97.978 147.602 98.318 147.55 98.318C147.498 98.318 147.444 97.978 147.444 97.558C147.444 97.138 147.503 97.337 147.561 97.337C147.619 97.337 147.65 97.138 147.65 97.558Z" fill="#FFD037"/>
<path d="M148.232 98.0591C147.865 98.2591 147.544 98.3801 147.516 98.3301C147.488 98.2801 147.764 98.0751 148.131 97.8691C148.498 97.6631 148.354 97.8141 148.382 97.8691C148.41 97.9241 148.596 97.8571 148.232 98.0591Z" fill="#FFD037"/>
<path d="M141.135 96.039C141.135 96.039 140.223 97.23 141.556 99.031C142.889 100.832 143.987 102.35 143.542 103.472C143.542 103.472 141.533 100.13 139.895 100.082C138.257 100.034 139.347 98.048 141.135 96.039Z" fill="#2CDD82"/>
<path opacity="0.1" d="M141.135 96.039C141.056 96.1539 140.993 96.2795 140.949 96.412C139.349 98.288 138.501 100.039 140.037 100.082C141.465 100.123 143.181 102.682 143.591 103.324C143.578 103.376 143.562 103.428 143.542 103.478C143.542 103.478 141.533 100.136 139.895 100.088C138.257 100.04 139.347 98.048 141.135 96.039Z" fill="black"/>
<path d="M139.446 97.558C139.446 97.978 139.492 98.318 139.546 98.318C139.6 98.318 139.652 97.978 139.652 97.558C139.652 97.138 139.592 97.337 139.535 97.337C139.478 97.337 139.446 97.138 139.446 97.558Z" fill="#FFD037"/>
<path d="M138.864 98.0591C139.231 98.2591 139.553 98.3801 139.58 98.3301C139.607 98.2801 139.332 98.0751 138.965 97.8691C138.598 97.6631 138.742 97.8141 138.715 97.8691C138.688 97.9241 138.495 97.8571 138.864 98.0591Z" fill="#FFD037"/>
<path opacity="0.1" d="M143.55 112.591C148.814 112.591 153.082 111.936 153.082 111.129C153.082 110.322 148.814 109.667 143.55 109.667C138.286 109.667 134.018 110.322 134.018 111.129C134.018 111.936 138.286 112.591 143.55 112.591Z" fill="#2CDD82"/>
<path d="M148.454 101.866L148.408 102.238L148.343 102.764L148.317 102.984L148.253 103.51L148.225 103.73L148.162 104.254L147.432 110.234C147.367 110.767 146.496 111.184 145.443 111.184H141.653C140.6 111.184 139.73 110.767 139.664 110.234L138.934 104.254L138.87 103.73L138.844 103.51L138.779 102.984L138.751 102.764L138.688 102.238L138.642 101.866C138.607 101.559 139.077 101.309 139.673 101.309H147.424C148.019 101.309 148.491 101.563 148.454 101.866Z" fill="#65617D"/>
<path d="M148.409 102.237L148.346 102.763H138.753L138.688 102.237H148.409Z" fill="#9D9CB5"/>
<path d="M148.318 102.983L148.255 103.509H138.843L138.778 102.983H148.318Z" fill="#9D9CB5"/>
<path d="M148.227 103.729L148.162 104.255H138.933L138.87 103.729H148.227Z" fill="#9D9CB5"/>
<defs>
<linearGradient id="paint0_linear" x1="84.0178" y1="78.1649" x2="84.0178" y2="0.972351" gradientUnits="userSpaceOnUse">
<stop stop-color="#808080" stop-opacity="0.251"/>
<stop offset="0.54" stop-color="#808080" stop-opacity="0.122"/>
<stop offset="1" stop-color="#808080" stop-opacity="0.102"/>
</linearGradient>
</defs>
</svg>
